<?xml version="1.0" encoding="UTF-8"?> <svg xmlns="http://www.w3.org/2000/svg" xmlns:xlink="http://www.w3.org/1999/xlink" width="347.89" height="235.366" viewBox="0 0 347.89 235.366"><defs><linearGradient id="linear-gradient" x1="0.909" y1="0.061" x2="0.059" y2="0.89" gradientUnits="objectBoundingBox"><stop offset="0" stop-color="#fff" stop-opacity="0.941"></stop><stop offset="1" stop-color="#fff" stop-opacity="0.722"></stop></linearGradient><linearGradient id="linear-gradient-2" x1="0.908" y1="0.075" x2="0.073" y2="0.899" gradientUnits="objectBoundingBox"><stop offset="0" stop-color="#f7df1e"></stop><stop offset="1" stop-color="#d2bb00"></stop></linearGradient><linearGradient id="linear-gradient-4" x1="0.895" y1="0.073" x2="0.047" y2="0.903" gradientUnits="objectBoundingBox"><stop offset="0" stop-color="#787cb4"></stop><stop offset="1" stop-color="#5d64bd"></stop></linearGradient><linearGradient id="linear-gradient-5" x1="0.5" x2="0.5" y2="1" gradientUnits="objectBoundingBox"><stop offset="0" stop-color="#cf649a"></stop><stop offset="1" stop-color="#d23a87"></stop></linearGradient><linearGradient id="linear-gradient-6" x1="0.915" y1="0.076" x2="0.095" y2="0.954" gradientUnits="objectBoundingBox"><stop offset="0" stop-color="#0073aa"></stop><stop offset="1" stop-color="#0095dd"></stop></linearGradient><linearGradient id="linear-gradient-8" x1="0.124" y1="0.133" x2="0.855" y2="0.883" gradientUnits="objectBoundingBox"><stop offset="0" stop-color="#8c13fd"></stop><stop offset="1" stop-color="#6e10f4"></stop></linearGradient></defs><g id="Image-icons" transform="translate(-1126.555 -3277)"><g id="HTML" transform="translate(1217.449 3445.392)"><rect id="Rectángulo_86" data-name="Rectángulo 86" width="69" height="67" rx="15" transform="translate(0.105 -0.392)" fill="url(#linear-gradient)"></rect><g id="HTML5svg" transform="translate(12.438 8.611)"><path id="Trazado_63" data-name="Trazado 63" d="M78.593,145.416,74.6,100.6h43.9L114.5,145.392l-17.992,4.985" transform="translate(-74.6 -100.6)" fill="#e44d26"></path><path id="Trazado_64" data-name="Trazado 64" d="M256,173.287V131h17.943l-3.424,38.234" transform="translate(-234.052 -127.322)" fill="#f16529"></path><path id="Trazado_65" data-name="Trazado 65" d="M142,176.3h13.793v5.493h-7.768l.508,5.626h7.26V192.9H143.5m.242,2.759h5.517l.387,4.392,6.146,1.646v5.735l-11.277-3.146" transform="translate(-133.845 -167.141)" fill="#ebebeb"></path><path id="Trazado_66" data-name="Trazado 66" d="M269.569,176.3H255.8v5.493h13.261m-.5,5.626H255.8v5.493h6.776l-.641,7.139L255.8,201.7v5.711l11.252-3.122" transform="translate(-233.876 -167.141)" fill="#fff"></path></g></g><g id="JQUERY" transform="translate(1126.555 3445.392)"><rect id="Rectángulo_91" data-name="Rectángulo 91" width="69" height="67" rx="15" transform="translate(0 -0.392)"></rect><g id="JQuery-2" data-name="JQuery" transform="translate(5.726 25.397)"><path id="Trazado_67" data-name="Trazado 67" d="M221.008,46.167h0l-.459,1.626.459-1.626Z" transform="translate(-204.597 -39.846)" fill="#fff"></path><path id="Trazado_68" data-name="Trazado 68" d="M237.952,71.943l-.506,0Z" transform="translate(-219.181 -62.092)" fill="#fff"></path><path id="Trazado_69" data-name="Trazado 69" d="M221.092,89.7h0l-3.03.011,3.029-.011Z" transform="translate(-202.451 -77.424)" fill="#fff"></path><path id="Trazado_70" data-name="Trazado 70" d="M241.641,71.965l-.506,0Z" transform="translate(-222.365 -62.111)" fill="#fff"></path><path id="Trazado_71" data-name="Trazado 71" d="M242.13,75.506l.528-2.013-.528,2.013h0Z" transform="translate(-223.224 -63.433)" fill="#fff"></path><path id="Trazado_72" data-name="Trazado 72" d="M317.412,20.49l-.983,4.621.983-4.621Z" transform="translate(-287.351 -17.685)" fill="#fff"></path><path id="Trazado_73" data-name="Trazado 73" d="M300.445,20.488l-.746,3.452.746-3.453Z" transform="translate(-272.911 -17.683)" fill="#fff"></path><path id="Trazado_74" data-name="Trazado 74" d="M262.777,18.971h-2.1a.276.276,0,0,0-.257.208l-.746,3.453-.746,3.453a.276.276,0,0,1-.257.207H257.18c-1.472,0-1.3-1.018-1-2.413l.009-.042.033-.176.006-.033.067-.358.072-.384c.022-.116.055-.285.077-.391l.339-1.658.34-1.658a.167.167,0,0,0-.17-.208H254.8a.274.274,0,0,0-.256.208l-.464,2.2-.464,2.2a.014.014,0,0,0,0,0l-.043.2c-.534,2.44-.393,4.766,2.512,4.839l.084,0h4.559a.275.275,0,0,0,.257-.208l.983-4.621.983-4.621a.165.165,0,0,0-.168-.208Z" transform="translate(-232.885 -16.374)" fill="#fff"></path><path id="Trazado_75" data-name="Trazado 75" d="M383.423,72.621a.167.167,0,0,1,.17.208l-.2,1" transform="translate(-345.145 -62.68)" fill="#fff"></path><path id="Trazado_76" data-name="Trazado 76" d="M381.9,82.425l.2-1-.2,1h0Z" transform="translate(-343.859 -70.28)" fill="#fff"></path><path id="Trazado_77" data-name="Trazado 77" d="M355.6,90.251h0c-.619.005-2.478.019-3.875.019,1.7,0,3.874-.019,3.874-.019Z" transform="translate(-317.821 -77.897)" fill="#fff"></path><path id="Trazado_78" data-name="Trazado 78" d="M342.127,61.331c0-.109.123-.3.239-.3l-.263,0C341.986,62.219,342.127,61.331,342.127,61.331Z" transform="translate(-309.471 -52.675)" fill="#fff"></path><path id="Trazado_79" data-name="Trazado 79" d="M352.875,90.387h0Z" transform="translate(-318.774 -78.014)" fill="#fff"></path><path id="Trazado_80" data-name="Trazado 80" d="M383.213,72.621a.167.167,0,0,1,.17.208l-.2,1-.033.163" transform="translate(-344.935 -62.68)" fill="#fff"></path><path id="Trazado_81" data-name="Trazado 81" d="M360.346,90.37h0Z" transform="translate(-325.25 -77.999)" fill="#fff"></path><path id="Trazado_82" data-name="Trazado 82" d="M356.441,90.382h0Z" transform="translate(-321.861 -78.01)" fill="#fff"></path><path id="Trazado_83" data-name="Trazado 83" d="M355.168,90.385h0Z" transform="translate(-320.745 -78.012)" fill="#fff"></path><path id="Trazado_84" data-name="Trazado 84" d="M354.036,90.387h0Z" transform="translate(-319.773 -78.014)" fill="#fff"></path><path id="Trazado_85" data-name="Trazado 85" d="M355.607,90.382h0Z" transform="translate(-321.057 -78.01)" fill="#fff"></path><path id="Trazado_86" data-name="Trazado 86" d="M357.142,90.37l-.507,0Z" transform="translate(-322.054 -77.999)" fill="#fff"></path><path id="Trazado_87" data-name="Trazado 87" d="M363.084,90.25h0c-.453,0-1.573.012-2.689.016C361.511,90.262,362.631,90.254,363.084,90.25Z" transform="translate(-325.299 -77.896)" fill="#fff"></path><path id="Trazado_88" data-name="Trazado 88" d="M381.9,83.452l.171-.836-.171.837h0Z" transform="translate(-343.859 -71.307)" fill="#fff"></path><path id="Trazado_89" data-name="Trazado 89" d="M354.42,90.387h0Z" transform="translate(-320.047 -78.014)" fill="#fff"></path><path id="Trazado_90" data-name="Trazado 90" d="M351.884,90.389h0Z" transform="translate(-317.824 -78.016)" fill="#fff"></path><path id="Trazado_91" data-name="Trazado 91" d="M353.244,90.387h0Z" transform="translate(-319.025 -78.014)" fill="#fff"></path><path id="Trazado_92" data-name="Trazado 92" d="M126.806,54.29l.327-1.447-.373,1.655-.358,1.685.314-1.477c.024-.114.065-.3.091-.415Z" transform="translate(-123.337 -45.609)" fill="#fff"></path><path id="Trazado_93" data-name="Trazado 93" d="M138.927,18.793h-2.309a.28.28,0,0,0-.259.207l-.219.966-.219.967a.163.163,0,0,0,.165.207h2.326a.277.277,0,0,0,.258-.207l.212-.966.212-.966h0a.164.164,0,0,0-.167-.207Z" transform="translate(-131.549 -16.22)" fill="#fff"></path><path id="Trazado_94" data-name="Trazado 94" d="M149.971,42.27h0l-.677,3.132Z" transform="translate(-143.096 -36.484)" fill="#fff"></path><path id="Trazado_95" data-name="Trazado 95" d="M105.244,118.088s1.164.015,1.9.015c-.562,0-1.49-.01-1.9-.015h0Z" transform="translate(-105.075 -101.923)" fill="#fff"></path><path id="Trazado_96" data-name="Trazado 96" d="M132.069,42.269l-.327,1.447Z" transform="translate(-127.947 -36.483)" fill="#fff"></path><path id="Trazado_97" data-name="Trazado 97" d="M110.724,40.756H108.4a.279.279,0,0,0-.259.207l-.327,1.447-.327,1.447c-.026.114-.067.3-.091.415l-.314,1.477-.314,1.477c-.024.114-.075.3-.112.409,0,0-.435,1.293-1.165,1.279l-.091,0-.632-.012h0a.277.277,0,0,0-.261.2l-.241,1.014-.241,1.014a.163.163,0,0,0,.162.209c.414.005,1.342.015,1.9.015,1.825,0,2.788-1.011,3.4-3.921l.722-3.34.677-3.132a.164.164,0,0,0-.167-.207Z" transform="translate(-104.016 -35.177)" fill="#fff"></path><path id="Trazado_98" data-name="Trazado 98" d="M393.383,36.523a.165.165,0,0,1-.168-.208l1.75-8.2" transform="translate(-353.623 -24.268)" fill="#fff"></path><path id="Trazado_99" data-name="Trazado 99" d="M412.24,65.941l.708-3.5Z" transform="translate(-370.047 -53.894)" fill="#fff"></path><path id="Trazado_100" data-name="Trazado 100" d="M393.24,62.266a.9.9,0,0,1,.019-.311l.831-3.892-.875,4.1a.165.165,0,0,0,.168.208h.213c-.117,0-.341-.047-.355-.1Z" transform="translate(-353.622 -50.114)" fill="#fff"></path><path id="Trazado_101" data-name="Trazado 101" d="M409.162,86.854a1.1,1.1,0,0,1-.328.047h.213a.271.271,0,0,0,.254-.208l.042-.208C409.32,86.6,409.225,86.829,409.162,86.854Z" transform="translate(-367.107 -74.646)" fill="#fff"></path><path id="Trazado_102" data-name="Trazado 102" d="M414.83,65.485l.312-1.544v0l-.312,1.541Z" transform="translate(-372.282 -55.188)" fill="#fff"></path><path id="Trazado_103" data-name="Trazado 103" d="M464.856,32.128l.1.4a.161.161,0,0,1-.164.207" transform="translate(-415.403 -27.73)" fill="#fff"></path><path id="Trazado_104" data-name="Trazado 104" d="M412.55,76.766l.312-1.542Z" transform="translate(-370.315 -64.927)" fill="#fff"></path><path id="Trazado_105" data-name="Trazado 105" d="M464.58,29.147l.1.408Z" transform="translate(-415.222 -25.157)" fill="#fff"></path><path id="Trazado_106" data-name="Trazado 106" d="M417.11,51.482c.023-.114.062-.3.086-.413l.334-1.563-.378,1.771-.042.205Z" transform="translate(-374.25 -42.729)" fill="#fff"></path><path id="Trazado_107" data-name="Trazado 107" d="M400.544,27.135c-.023.11-.053.25-.073.342l-.831,3.892.875-4.1.028-.134Z" transform="translate(-359.173 -23.42)" fill="#fff"></path><path id="Trazado_108" data-name="Trazado 108" d="M403.321,21.324l-.1-.4-.1-.408-.048-.207c-.189-.734-.744-1.158-1.948-1.158l-1.875,0-1.727,0h-1.943a.274.274,0,0,0-.256.208h0l-.086.406-.1.48-.028.134-.875,4.1-.831,3.892a.9.9,0,0,0-.019.311c.014.057.238.1.355.1H395.5a1.1,1.1,0,0,0,.328-.047c.064-.026.158-.255.181-.369l.312-1.542.312-1.541v0l.042-.205.378-1.771.334-1.564a.275.275,0,0,1,.256-.207l5.517,0a.161.161,0,0,0,.164-.207Z" transform="translate(-353.771 -16.528)" fill="#fff"></path><path id="Trazado_109" data-name="Trazado 109" d="M455.988,8.7l-.425,0H453.8a.452.452,0,0,0-.332.175l-3.9,5.72c-.066.1-.141.082-.167-.031l-.287-1.26a.279.279,0,0,0-.26-.207h-2.51a.152.152,0,0,0-.154.2l1.125,3.94a.929.929,0,0,1,.006.41l-.49,1.907a.157.157,0,0,0,.16.206h2.481a.289.289,0,0,0,.265-.206l.49-1.907a1.268,1.268,0,0,1,.181-.375l6.339-8.413c.07-.093.032-.169-.084-.168l-.665,0Z" transform="translate(-399.337 -7.503)" fill="#fff"></path><path id="Trazado_110" data-name="Trazado 110" d="M329.492,21.613v0a.256.256,0,0,1-.248.22h-3.182a.137.137,0,0,1-.15-.167.028.028,0,0,1,0-.007h0s0-.007,0-.011l.014-.054a1.994,1.994,0,0,1,2.087-1.338c1.31,0,1.566.64,1.477,1.36Zm-.934-3.673c-4.085,0-5.053,2.479-5.6,4.982-.543,2.551-.5,4.936,3.731,4.936h.67l.507,0h.009c1.116,0,2.236-.013,2.689-.016a.275.275,0,0,0,.253-.209l.171-.837.033-.163.2-1a.167.167,0,0,0-.17-.208h-3.8c-1.511,0-1.96-.4-1.795-1.582h6.078a.251.251,0,0,0,.221-.157.221.221,0,0,0,.015-.053h0c.9-3.4.643-5.694-3.221-5.694Z" transform="translate(-292.783 -15.484)" fill="#fff"></path><path id="Trazado_111" data-name="Trazado 111" d="M169.925,6.116l-.057.2h0l-.459,1.626-.458,1.625a.3.3,0,0,1-.27.2h-2.428c-1.842,0-2.29-1.44-1.842-3.565.448-2.173,1.327-3.524,3.14-3.661,2.477-.187,2.972,1.555,2.374,3.566ZM171.59,9.65a27.225,27.225,0,0,0,1.4-4.385C173.349,3.117,172.273,0,168.117,0c-4.132,0-5.927,2.976-6.611,6.21-.685,3.258.212,6.116,4.321,6.092l3.241-.012,3.03-.011a.293.293,0,0,0,.266-.206l.528-2.013a.157.157,0,0,0-.159-.207l-.506,0-.506,0a.13.13,0,0,1-.144-.15.2.2,0,0,1,.012-.047Z" transform="translate(-153.456 0)" fill="#fff"></path><path id="Trazado_112" data-name="Trazado 112" d="M384.163,56.031a.139.139,0,1,1-.139-.139A.139.139,0,0,1,384.163,56.031Z" transform="translate(-345.573 -48.241)" fill="#fff"></path></g></g><g id="gsap-greensock" transform="translate(1223.189 3360.239)"><path id="Trazado_151" data-name="Trazado 151" d="M9.066,29.278A42.517,42.517,0,0,0,.939,35.564C-.1,36.791-.4,34.874.671,31.693a21.091,21.091,0,0,1,6.593-9.047,68.734,68.734,0,0,1,9.583-5.673,94.961,94.961,0,0,1,14.644-5.022c.575-.153-.69.958-.882,1.572-1,2.913-20.892,15.41-20.892,15.41ZM37.087,64.429c.345,2.07.038,2.223-2.108,2.492a5.573,5.573,0,0,1-4.293-1.073,2.421,2.421,0,0,1-.115-2.8,6.334,6.334,0,0,0,.882-1.763,4.3,4.3,0,0,1,.5-1.3c.153-.269.192-.537.23-2.415s0-5.405.192-6.9c.192-1.533,6.823.69,6.823.69s-1.572,3.91-1.993,4.868a9.645,9.645,0,0,0-.383,3.182,2.568,2.568,0,0,1-.268,1.188c-.115.038.383,1.035.153,1.61A7.457,7.457,0,0,0,37.087,64.429Zm2.53-58.612a12.652,12.652,0,0,1,.307-4.792c.958-1.3,6.018-1.457,7.092.077a6.663,6.663,0,0,1,.345,3.335c-.077,1.035-.345,3.258-.383,3.987-.038.537-5.6,1.38-6.823-.077a8.543,8.543,0,0,1-.537-2.53Zm11.27,54.893c2.338,1.687,4.14,1.993,5.328,2.607s.882,1.8-1.112,2.147c-1.61.307-4.14-.307-5.827-.307s-5.443.192-6.44-.5a2.1,2.1,0,0,1-.652-2.3,9.527,9.527,0,0,0,.843-4.255,14.415,14.415,0,0,0-1.112-3.8c-.575-1.418-1-4.907-.46-5.1s.383,0,1.073.153a11.16,11.16,0,0,0,2.952.383A22.594,22.594,0,0,0,49.2,49.4c.575-.115,1.035-.23.843.958a38.274,38.274,0,0,0-.8,5.137,28.772,28.772,0,0,0,.077,4.063c.115.345.958.728,1.572,1.15Z" transform="translate(0 0)" fill="#010101"></path><path id="Trazado_152" data-name="Trazado 152" d="M63.437,50.837c-4.217,3.642-12.382,4.638-24.495,9.315-3.105,1.188-11.385,4.753-13.378,8.472,6.708-3.872,9.2,1.457,9.737,6.938.5,5.137,3.067,7.82,9.66,7.667,6.785-.153,8.855,3.8,10.733,8.434,3.642-17.749,9.468-21.2,13.225-24.227,7.974-6.479-1.84-17.9-5.481-16.6Z" transform="translate(-20.753 -41.187)" fill="#8ac640"></path><path id="Trazado_153" data-name="Trazado 153" d="M46.736,51.28c-10.12,3.527-20.125,4.408-31.893,11.653-2.8,1.725-8.7,5.635-9.852,13.11C9.284,71.29,19.213,65.31,31.364,61.515c6.133-1.917,10.619-3.182,16.062-5.29-.383-2.454-.383-3.412-.69-4.945Z" transform="translate(-4.052 -41.629)" fill="#8ac640"></path><path id="Trazado_154" data-name="Trazado 154" d="M217.4,57.156s-.728,2.492-2.185,3.3c0,0-1.073.383-3.22-.8a2.763,2.763,0,0,1-1.035-1.917,1.789,1.789,0,0,1,.613-1.342s.614-1.035,1.342-1,1.955.153,2.339-.192C215.6,54.818,217.478,55.891,217.4,57.156Zm-15.64-24.112a29.942,29.942,0,0,1-.422,3.182c-.038.23-1.188.345-2.032.69,1.61,4.6,11.308,4.562,12.574,2.3a16.7,16.7,0,0,0-2.415-1.3c-.575-.23-.537-.192-.575-1.265s-.115-3.067-.192-3.6S202.681,32.508,201.761,33.045Z" transform="translate(-161.799 -26.499)" fill="#010101"></path><path id="Trazado_155" data-name="Trazado 155" d="M213.221,33.353s0,1.112-.115,2.185a9.034,9.034,0,0,1-.153,1.188,8.016,8.016,0,0,1,1.687,3.182c1.84,4.1,6.1,2.07,7.858.115a14.817,14.817,0,0,0-2.76-1.457c-.575-.23-.307-.728-.345-1.8s-.192-2.645-.268-3.22S214.141,32.816,213.221,33.353Z" transform="translate(-172.875 -26.808)" fill="#f0efef"></path><g id="Grupo_5" data-name="Grupo 5" transform="translate(39.626 0.566)"><path id="Trazado_156" data-name="Trazado 156" d="M211.683,33.045s-.038.69-.153,1.5c.5.5,1.15,1.188,1.648,1.61.345.307,1.188.268,1.955.268a4.606,4.606,0,0,0,1.572-.077,8.007,8.007,0,0,0,1.993-1.648c-.038-.69-.077-1.342-.115-1.648C218.545,32.508,212.6,32.508,211.683,33.045Z" transform="translate(-211.346 -27.065)" fill="#010101"></path><path id="Trazado_157" data-name="Trazado 157" d="M215.583,16.2a8.488,8.488,0,0,1-1.418-.115,2.255,2.255,0,0,1-.537-.23c-.268-.192-.537-.422-.843-.652-.614-.46-.652-.728-.652-.843a17.834,17.834,0,0,0-.077-4.447s-.268-1.035,1.188-1.3a18.837,18.837,0,0,1,2.338-.307,12.257,12.257,0,0,1,2.338.307c1.457.268,1.188,1.3,1.188,1.3a17.839,17.839,0,0,0-.077,4.447c0,.115-.038.383-.652.843a4.525,4.525,0,0,1-1.38.882A8.491,8.491,0,0,1,215.583,16.2Z" transform="translate(-211.757 -7.305)" fill="#010101"></path><path id="Trazado_158" data-name="Trazado 158" d="M214.379,3.006c-2.53,0-3.028.69-3.757,1.457-.153.192-.038,1.342.23,3.8h.345a4.585,4.585,0,0,1-.192-1.5c.038-.8.192-.767.077-.958-.153-.23-.46-.614.23-1s1.763.307,3.067.345c1.3-.038,2.415-.728,3.1-.345s.383.767.23,1,.038.153.077.958a4.592,4.592,0,0,1-.192,1.5h.345a20.233,20.233,0,0,0,.268-3.718C217.56,3.7,216.909,3.044,214.379,3.006ZM226.53,33.213s-.728,2.338-2.147,3.143c-.307-.153-.268-.383-.537-.728-.077-.115-.345-.192-.46-.307s-.077-.307-.268-.46c-.153-.153-.268-.038-.422-.153-.153-.153-.192-.345-.307-.46-.077-.077-.383-.115-.46-.192-.192-.192-1.878-.537-1.8-.92a3.336,3.336,0,0,1,.46-1s.728-1.073,1.456-1.035,1.418.192,1.8-.153C224.269,30.568,226.646,31.986,226.53,33.213Z" transform="translate(-210.553 -3.006)" fill="#010101"></path><path id="Trazado_159" data-name="Trazado 159" d="M266.675,73.039a4.771,4.771,0,0,1,4.063,1,4.355,4.355,0,0,1,1.035,4.83,3.715,3.715,0,0,1,.613,3.527c2.53,2.147,1.418,5.443-.843,7.628a2.977,2.977,0,0,0-2.683-2.108c.077-.767-1.993-1.38-1.035-3.373-1.457-.345-1.418-1.342-1.648-2.568C265.985,80.744,266.675,73.039,266.675,73.039Z" transform="translate(-255.681 -59.776)" fill="#010101"></path></g><path id="Trazado_160" data-name="Trazado 160" d="M263.536,76.7s2.8-1.418,4.447.192a3.843,3.843,0,0,1,.69,4.6,3.706,3.706,0,0,1,.8,3.6c-.115.383-.958.383-1.572,1.38,1.533-.882,2.492-.652,2.837.46.537,1.725-.652,3.8-1.687,4.945,0-.038-.038-.077-.038-.115a5.848,5.848,0,0,1-1.495,2.913,1.446,1.446,0,0,1-1.687.383,9.52,9.52,0,0,1-2.108-1.112c-.613-.345-.268-.767-.268-1.112a.787.787,0,0,1,.192-.345,3.088,3.088,0,0,1,.652-.843,1.606,1.606,0,0,1,1.227-.652,2.967,2.967,0,0,0,1.687-.307c0-1.342-1.533-1.38-1-3.68.038-.115.23-.307.843-.383a3.26,3.26,0,0,1-1.993-.843,2.829,2.829,0,0,1-.92-1.648C263.919,82.944,263.536,76.7,263.536,76.7Z" transform="translate(-213.798 -61.793)" fill="#f0efef"></path><path id="Trazado_161" data-name="Trazado 161" d="M171.789,55.6a6.932,6.932,0,0,0-3.68-2.453c-.652-.192-1.073.345-1.725.728-.192-.115-1.035-.5-1.5-.23a10.292,10.292,0,0,1-1.227.728,2.075,2.075,0,0,0-1.342.077,3.8,3.8,0,0,0-1.993,1.5c-.46,1.648,8.127.422,8.127.422Z" transform="translate(-130.139 -43.11)" fill="#010101"></path><path id="Trazado_162" data-name="Trazado 162" d="M173.68,57.413c-1.227-.422-1.035-1.84-3.757-2.07-.537-.038-.882.383-1.265.652a2.4,2.4,0,0,1,.5.8,3.184,3.184,0,0,0-1.572-1c-.575-.115-.958.307-1.572.614a3.989,3.989,0,0,1,.383.537,1.569,1.569,0,0,0-1.648-.192,4.233,4.233,0,0,0-2.185,1.61c-.46,1.648,7.743-.192,7.743-.192Z" transform="translate(-131.953 -44.926)" fill="#8ac640"></path><path id="Trazado_163" data-name="Trazado 163" d="M258.189,63.41s0-.422-.038-.8c0-.077-.307-.268-.307-.345l-.077-.077a1.459,1.459,0,0,1,1.073-.153,1.52,1.52,0,0,1,.767.8c.882-.307.958.038,1.38.5.92-.192,1.035.153,1.61,1a6.8,6.8,0,0,0-2.032.115A3.177,3.177,0,0,1,258.189,63.41Z" transform="translate(-209.256 -50.309)" fill="#010101"></path><path id="Trazado_164" data-name="Trazado 164" d="M259.188,66.546s.23-.192.153-.23c.422-.23,1-.5,1.265.23.882-.307,1,.115,1.418.575,1.073-.5,1.15.115,1.227.383a15.139,15.139,0,0,0-1.533.115A3.548,3.548,0,0,1,259.188,66.546Z" transform="translate(-210.409 -53.637)" fill="#8ac640"></path><path id="Trazado_165" data-name="Trazado 165" d="M178.691,63.5a12.206,12.206,0,0,0,4.025.652c1.84-.153,4.983-.307,6.67.69a6.453,6.453,0,0,1,3.335-.192c1.61.422,4.562,3.182,3.68,6.095a2.26,2.26,0,0,1-1.15.69,3.968,3.968,0,0,1-.23,2.377,12.225,12.225,0,0,0-1.763,5.788c-.038.46-.115,1.418-.192,1.878-2.99-.115-7.59-1.227-12.113-1.15.038-.5.077-.8.115-1.3h.115c-.23-1.265-.307-1.917-.537-2.875a12.688,12.688,0,0,1-4.293-4.025c-1.265-2.032,2.338-8.625,2.338-8.625Zm14.8,20.7s2.377,8.51-.422,12.075a5.09,5.09,0,0,1-.537,3.412c-.153.767-.345,1.457-.46,2.223-.5,3.182-1.342,4.523-1.572,9.622l-2.3-.038a24.012,24.012,0,0,0-1.073-5.635c-.46-1.112-2.262-2.607-2.185-4.1.077-1.15.307-2.108,2.262-3.642.153-2.223-2.07-4.332-1.725-12.612Z" transform="translate(-142.945 -51.55)" fill="#010101"></path><path id="Trazado_166" data-name="Trazado 166" d="M196.54,83.856c.613,3.91,2.032,9.7-.537,12.535a5.78,5.78,0,0,1,.038,2.185,8.942,8.942,0,0,1-.422,1.495,13.757,13.757,0,0,0-.652,3.067,53.8,53.8,0,0,0-.728,8.434l-2.3-.038a24.009,24.009,0,0,0-1.073-5.635c-.46-1.112-1.418-2.07-1.495-3.565-.077-1.15.728-3.45,2.645-3.373-.115-4.638-2.262-3.718-2.837-13.378ZM182.433,63.5a9.075,9.075,0,0,0,1.763.345,22.621,22.621,0,0,0,2.8-.038c1.84-.153,4.447-.345,6.172.652a5.938,5.938,0,0,1,1.993-.23,10.354,10.354,0,0,1,1.457.575c1.687.422,3.3,3.22,2.568,5.75-.077.192-.613,0-1.227.192a5.078,5.078,0,0,1-.422,3.067,11.08,11.08,0,0,0-1.342,6.21c-4.025-.192-5.827-.46-9.813-.652a23.035,23.035,0,0,1-.613-3.565,3.82,3.82,0,0,0,1.265-.958,2.937,2.937,0,0,1-2.3-.268,11.433,11.433,0,0,1-2.53-2.415c-.077-.077-.5,1.188-1.456,1.227-.345-.5,1.111-1.917.843-2.453C180.631,68.983,182.433,63.5,182.433,63.5Z" transform="translate(-146.687 -51.55)" fill="#f0efef"></path><path id="Trazado_167" data-name="Trazado 167" d="M211.131,150.944s.077,1.38.077,1.725c0,.383.307,1.533.345,2.07-.422.728-2.262,2.377-5.6,2.99-3.3.69-7.667-4.485-7.667-4.485.115-.5.5-1.955.767-2.722a1.216,1.216,0,0,0,.115-.345C199.516,149.679,211.131,150.944,211.131,150.944Z" transform="translate(-160.971 -121.82)" fill="#010101"></path><path id="Trazado_168" data-name="Trazado 168" d="M215.909,147.758a11.054,11.054,0,0,0,.268,2.262,19.572,19.572,0,0,1,.5,2.568c0,2.223-2.913,1.84-5.367,1.917-3.3.69-6.095-4.485-6.095-4.485a21.9,21.9,0,0,1,.728-2.722c.038-.46.115-1.035.153-1.3a97.952,97.952,0,0,1,9.89.46,3.324,3.324,0,0,1-.076,1.3Z" transform="translate(-166.593 -118.519)" fill="#f0efef"></path><path id="Trazado_169" data-name="Trazado 169" d="M186.434,166.842s-2.032-4.523-8.127-3.181c-1.456,4.1-3.412,8.817-2.147,13.915-1.265,1.725-2.722,2.684-2.722,5.865a20.815,20.815,0,0,0,.153,3.718l4.485.23a13.394,13.394,0,0,0,2.032-3.91,8.317,8.317,0,0,0,.192-2.8,3.053,3.053,0,0,0,.882-1.8,8.725,8.725,0,0,0,3.45-3.948C185.821,172.4,185.514,170.216,186.434,166.842Z" transform="translate(-140.798 -132.658)" fill="#010101"></path><path id="Trazado_170" data-name="Trazado 170" d="M191.264,166.277c-.115-.422-1.648-4.562-7.322-3.335-3.335,8.893-2.108,12.573-1.61,14.183-2.262,2.875-3.3,3.488-2.837,9.315h2.99a8.9,8.9,0,0,0,1.763-5.865c0-.115-.422.23-.728.613.23-1.188.882-1.418,1.38-2.147a2.271,2.271,0,0,0,.422-1.38,9.935,9.935,0,0,0,4.255-6.4c.46-1.61,1-4.255,1.687-4.983Z" transform="translate(-145.628 -132.093)" fill="#f0efef"></path><g id="Grupo_6" data-name="Grupo 6" transform="translate(24.549 11.485)"><path id="Trazado_171" data-name="Trazado 171" d="M167.378,148.846a8.06,8.06,0,0,1,1.955.345,2.024,2.024,0,0,1,1.227.882c.345.384,1.188.958,1.035,1.533-.077.307-.268.383-.537.652-.115.115-.958,1.035-1.15,1.15-.115.077-.268.192-.383.268l-.575.383a1.8,1.8,0,0,1-1.073.268,2.527,2.527,0,0,1-1.572-.69s-.077-.307.077-.46a5.528,5.528,0,0,1-1.035-1.15,1.942,1.942,0,0,1-.077-1.456C165.346,150.226,166.841,149.268,167.378,148.846Zm.958,37.3-.115.958s-.345.422-2.913.383c-2.607-.038-3.3-.843-3.527-1.265l-.153-1s.5-.728.613-.728c.843.077,3.718,1.227,5.712,1.533C168.144,186.029,168.183,186.106,168.336,186.144Zm5.558-1.955c0,.422-.038.422-.038.843.46.345,1.61.537,3.8.5,3.182-.077,6.133.958,9.737.345l.038-.69-.345-.038-12.765-1.035Z" transform="translate(-155.759 -132.319)" fill="#010101"></path><path id="Trazado_172" data-name="Trazado 172" d="M151.374,114.24h.958c2.07-.077,4.025.383,6.133.5,1.112-.038,2.492-.307,2.377-1.112l-10.887-.92C149.3,113.435,149.8,114.048,151.374,114.24ZM138.878,98.1a11.279,11.279,0,0,0,6.478,1.418,8.31,8.31,0,0,1-1.725,4.638,12.423,12.423,0,0,0-1.725,6.1c.038.613.383,1.15-.077,1.955a22,22,0,0,0,1.073,2.108c.307.614.46,1.3-1.572,1.342-2.07.038-5.405-.192-4.945-1.8.23-.843.882-1.725.959-2.07a3.72,3.72,0,0,1,.728-2.07,14.884,14.884,0,0,0,.269-5.482C138.149,102.433,138.111,99.558,138.878,98.1Zm3.565-31.242c2.722-3.642.422-6.555-3.948-5.673a4.168,4.168,0,0,0-3.642,3.8c-.575.077-1.878.153-2.53,2.53a5.4,5.4,0,0,1-1.648,3.1c-.575.652.038,1.993.46,2.952,1.418,3.3,5.788,3.6,8.74,6.095a4.253,4.253,0,0,0,2.338-2.108c-2.492-2.952-1.955-4.1-2.952-5.635A4.788,4.788,0,0,0,142.443,66.86Z" transform="translate(-130.44 -61.027)" fill="#010101"></path></g><path id="Trazado_173" data-name="Trazado 173" d="M148.173,68.573c.153-.23.422-.728.537-.92.038-.038.46.69.5.652,1.035-1.687,1.3-4.14.115-4.37a6.794,6.794,0,0,1-1.188-.307,4.775,4.775,0,0,0-2.683-.038c-1.687.307-3.373,1.533-3.373,3.3a3.15,3.15,0,0,1,1.533,1.878c-.575-.805-1.572-1.687-2.76-.92-1.265.8-.613,2.645-2.3,4.562-.575.652-.5,1.418.115,2.952,1,2.415,5.712,3.718,8.28,6.018a3.469,3.469,0,0,0,1.342-1.342,13.63,13.63,0,0,1-2.913-4.715,7.737,7.737,0,0,0-2.645-3.3,6.985,6.985,0,0,1,1.533.767,1.527,1.527,0,0,0,1.3.115C147.215,72.33,148.1,70.03,148.173,68.573Z" transform="translate(-112.158 -51.486)" fill="#f0efef"></path><path id="Trazado_174" data-name="Trazado 174" d="M210.516,87.439c-.115,1.457-1.188.728-1.763.46a8.907,8.907,0,0,0-3.642-.843,19.307,19.307,0,0,0-4.562.5c-2.07.575-2.684.537-3.6.077a27.457,27.457,0,0,1-2.53-1.725,1.366,1.366,0,0,0,.345.882,7.073,7.073,0,0,0,3.1,1.878,3.376,3.376,0,0,0,1.955-.077c3.412-.843,7.015-1,10.043.843.153.077.69-.153.92-.5C211.091,88.436,210.516,87.439,210.516,87.439Z" transform="translate(-157.827 -69.739)" fill="#010101"></path><path id="Trazado_175" data-name="Trazado 175" d="M187.291,171.658a7.414,7.414,0,0,1,1.111.652.847.847,0,0,1-.5-.153A5.409,5.409,0,0,1,187.291,171.658Z" transform="translate(-152.043 -139.352)" fill="#0a1825"></path><path id="Trazado_176" data-name="Trazado 176" d="M220.857,6c-.115-.345-.958-.958-2.913-.958-2.108,0-2.722.652-2.76,1,0,.115-.153,1.342-.192,1.84,0,0,0,.613.038,1.533.038.613.192.958.268,1.763a4.337,4.337,0,0,0,.728,2.07,1.766,1.766,0,0,0,.537.268,7.844,7.844,0,0,0,2.837,0,2.094,2.094,0,0,0,1.073-1.5c.153-.8.307-1.38.345-1.878.077-.5.115-1.61.153-1.917A8.055,8.055,0,0,0,220.857,6Z" transform="translate(-174.531 -4.093)" fill="#f0efef"></path><path id="Trazado_177" data-name="Trazado 177" d="M223.508,261.892s2.032.882,7.053.115c0,0-1.418,7.13-.767,10.695,0,0,.652.92,5.482,2.683,0,0,2.147.537,2.07,1.61,0,0,.077.23-2.53.153s-5.06-.537-6.785-.537-3.565.077-3.872-.422c-.345-.46.077-1.648.575-2.339.537-.728.383-1.265.345-2.568-.115-3.412-2.722-6.938-1.572-9.392Z" transform="translate(-181.207 -212.605)" fill="#010101"></path><path id="Trazado_178" data-name="Trazado 178" d="M222.09,265.27c-.268.383.038,1.84.422,3.258s1.227,2.262,1.418,4.6c.192,2.3.23,2.607-.422,3.948s-.843,2.568,1.418,2.607a36.857,36.857,0,0,1,5.788.307,13.179,13.179,0,0,0,4.37.268c1.265-.192,1.533-.614,1-1s-2.76-.8-3.718-1.572c-.92-.69-3.527-1.84-3.565-2.147a39.574,39.574,0,0,1,.038-6.018c.192-1.227.46-2.99.537-3.45s.46-.92-.192-.767a22.185,22.185,0,0,1-4.945.383A9.709,9.709,0,0,1,222.09,265.27Z" transform="translate(-180.211 -215.331)" fill="#8ac640"></path><path id="Trazado_179" data-name="Trazado 179" d="M223.005,282.21a6.131,6.131,0,0,0,2.338.537,3.566,3.566,0,0,0,.153,2.032c.422.767-3.067.307-3.067.307l-.153-2.722Zm10.158,3.3a.957.957,0,0,0,.537-1.533c-.537-.652-1-.767-.307-.8s3.22,1.495,3.22,1.495l-1.3,1.188ZM221.587,271.86a10.384,10.384,0,0,0,3.373.345,15.657,15.657,0,0,0,3.987-.575c1.111-.383.652.422.652.422l-.613.575a10.883,10.883,0,0,1-3.833.537,13.386,13.386,0,0,1-3.642-.345Zm.077,1.917a10.384,10.384,0,0,0,3.373.345,12.713,12.713,0,0,0,3.795-.46c.46-.153.192.5.192.5l-.192.345A11.808,11.808,0,0,1,225,275a11.645,11.645,0,0,1-3.3-.268Z" transform="translate(-179.822 -220.426)" fill="#010101" opacity="0.3"></path><path id="Trazado_180" data-name="Trazado 180" d="M223.508,261.892a14.4,14.4,0,0,0,7.092.383s-1.457,6.862-.8,10.388c0,0,.652.92,5.482,2.683,0,0,2.147.537,2.07,1.61,0,0,.077.23-2.53.153s-5.06-.537-6.785-.537-3.565.077-3.872-.422c-.345-.46.077-1.648.575-2.338.537-.728.383-1.265.345-2.568C224.965,267.872,222.358,264.345,223.508,261.892Z" transform="translate(-181.207 -212.605)" fill="none"></path><path id="Trazado_181" data-name="Trazado 181" d="M223.508,261.892a14.665,14.665,0,0,0,7.092.345s-1.457,6.9-.8,10.427c0,0,.652.92,5.482,2.683,0,0,2.147.537,2.07,1.61,0,0,.077.23-2.53.153s-5.1-.8-6.785-.537c-1.8.307-3.565.192-3.872-.422a2.864,2.864,0,0,1,.575-2.338c.537-.728.383-1.265.345-2.568C224.965,267.872,222.358,264.345,223.508,261.892Z" transform="translate(-181.207 -212.605)" fill="none"></path><path id="Trazado_182" data-name="Trazado 182" d="M208.881,140.7c0,.268,2.99,1.763,4.638,2.07a23.414,23.414,0,0,0,5.635-.115l-.077.537a21.207,21.207,0,0,1-7.245-.23c-3.143-.843-2.8-1.035-2.8-1.035Z" transform="translate(-169.57 -114.22)" fill="#010101"></path><path id="Trazado_183" data-name="Trazado 183" d="M166.489,270.459a6.4,6.4,0,0,0,3.182.422c.153-.038,0-2.645.422-3.833.613-1.648,1.61-2.99,2.07-5.9a24.019,24.019,0,0,1-4.408-.882C166.528,264.019,166.949,267.239,166.489,270.459Zm2.569,2.415c.268.077.46.383.537.192.153-.345-.268-1-.307-1.457v-.038a5.056,5.056,0,0,0-2.53-.192c-.268.5-.69.422-.843,1.418-.077.5.537.077,1.112.038-1.035.69-2.223,1.572-2.415,2.338-.23,1.073.153,1.38,1.3,1.955a12.377,12.377,0,0,0,3.1.23c1.035-.192,1.227-.69.92-1.38A13.917,13.917,0,0,1,169.058,272.874Z" transform="translate(-133.58 -211.281)" fill="#f0efef"></path><path id="Trazado_184" data-name="Trazado 184" d="M189.61,62.686a6.778,6.778,0,0,0,3.68.5c.153,0,1.687-.268,1.763-.23.153.038.153.153.153.153a4.975,4.975,0,0,1-1.878.383,8.2,8.2,0,0,1-3.488-.383C188.882,62.686,189.61,62.686,189.61,62.686Zm13.033.728a10.168,10.168,0,0,1,2.377,1.418c.575.614.268.575.153.422a9.143,9.143,0,0,0-1.8-1.188,3.3,3.3,0,0,1-1.035-.613C202.337,63.376,202.644,63.414,202.644,63.414Z" transform="translate(-153.711 -50.889)" fill="#010101"></path><path id="Trazado_185" data-name="Trazado 185" d="M184.835,151.032a3.743,3.743,0,0,1,2.99.958c.383.383,1,.8.92,1.188a1.987,1.987,0,0,1-.422.652c-.115.153-.46.5-.575.613-.153.115-.69.537-.8.613s-.268.269-.383.307a1.329,1.329,0,0,1-1.188-.153c-.383-.192.077-.23-.345-.537-1.035-.728-1.61-1.227-1.188-2.645C183.877,151.76,184.3,151.453,184.835,151.032Z" transform="translate(-149.127 -122.598)" fill="#f0efef"></path><path id="Trazado_186" data-name="Trazado 186" d="M74.3,102.794c-3.45,1.38-12.229,5.75-14.72,7.092,2.07,1.3,3.028,4.447,3.335,7.628.038.307.077.575.115.882a3.689,3.689,0,0,0,.115.575.23.23,0,0,0,.038.153c2.262-6.172,10.35-12.688,10.657-13.187.153-.23-.192-1.227.345-2.185C74.874,102.525,76.216,101.988,74.3,102.794Zm8.2,28.942c1.763-3.527,1.8-6.9,1.763-10.848,0-1.648,1.188-3.987.575-3.335-2.3,2.568-8.088,7.4-12.267,7.667C78.439,125.027,80.739,127.979,82.5,131.735Z" transform="translate(-48.366 -83.138)" fill="#010101" opacity="0.4"></path><path id="Trazado_187" data-name="Trazado 187" d="M41.654,114.791c2.185-1.572,13.493-7.59,16.215-8.433,2.722-.882,1.878-1.917,1.878-1.917s-11.04,4.753-17.633,8.855" transform="translate(-33.815 -84.785)" fill="#010101"></path><path id="Trazado_188" data-name="Trazado 188" d="M191.537,53.942c-.882-.345-1.572.69-1.342,1.687s2.3,2.108,2.185,5.75a10.432,10.432,0,0,1-.728,4.217l-1.457-1.84s-.23-4.14-.728-4.754-2.07-1.725-2.683-2.3.69-1.342.613-2.415a11.081,11.081,0,0,1,.652-3.1Zm5.328,16.33a66.875,66.875,0,0,0,.843,9.162c.268,2.032.613,2.185,0,3.105-.613.882-1.418,2.338-1.418,2.338l-2.645-.23a26.063,26.063,0,0,0,2.223-3.182,27.97,27.97,0,0,0-1.073-4.293Zm-5.1-26.833a3.388,3.388,0,0,0,2.223,2.07c.613.23,3.028.537,3.987-.537.422-.5.153-1.84.153-1.84L195.945,44.9l-2.952-.537-.345-.882Z" transform="translate(-151.498 -35.015)" fill="#010101" opacity="0.4"></path><path id="Trazado_189" data-name="Trazado 189" d="M213.873,58.816a15.594,15.594,0,0,0,4.178,1.38c.69.153,1.8-.728,2.338-.958a2.384,2.384,0,0,1,2.722.613c.115.115-.268.613-.268.613a4.412,4.412,0,0,1-.575-.192,1.733,1.733,0,0,0-1.035-.23c-1.917.23-2.223.882-3.91.5a10.86,10.86,0,0,0-3.757-.613" transform="translate(-173.373 -47.747)" fill="#8ac640" stroke="#010101" stroke-linejoin="round" stroke-miterlimit="10" stroke-width="1.586"></path><path id="Trazado_190" data-name="Trazado 190" d="M213.033,59.427a33.065,33.065,0,0,0,4.408,1.265c.69.153,1.8-.537,2.338-.882a2.249,2.249,0,0,1,2.76.537c.383.422.537.69.537.8,0,.153-.46,0-.46,0a4.976,4.976,0,0,1-.8-.307,1.887,1.887,0,0,0-1.073-.345c-1.917.23-2.3.882-3.948.5s-2.07-.728-3.833-.614" transform="translate(-172.879 -48.243)" fill="#8ac640"></path><path id="Trazado_191" data-name="Trazado 191" d="M81.751,165.01c-.077-.077.077-.153,0-.153a2.21,2.21,0,0,1-1.572-.92c-1.648-2.377-4.063-3.948-8.433-3.833-6.555.153-9.162-2.53-9.66-7.667-.268-2.8-1.035-5.52-2.607-7.053l-.92.575c1.763,1.533,2.338,4.025,2.722,7.437.613,5.137,4.753,7.513,9.583,7.59,5.022.077,6.823,1.112,8.7,3.642a3.011,3.011,0,0,0,1.84,1.188Z" transform="translate(-47.538 -118.022)" fill="#010101"></path><path id="Trazado_192" data-name="Trazado 192" d="M270.845,118.7a4.359,4.359,0,0,0,1.035,2.223c.269.268.307.345.077.345s-1.917-.077-1.917-.077l-.46-.8Z" transform="translate(-218.846 -96.361)" fill="#010101" opacity="0.4"></path></g><g id="JS" transform="translate(1309.301 3360.239)"><rect id="Rectángulo_83" data-name="Rectángulo 83" width="67" height="67" rx="15" transform="translate(0.256 -0.239)" fill="url(#linear-gradient-2)"></rect><path id="Trazado_133" data-name="Trazado 133" d="M193.342,307.907c1.354,2.211,3.116,3.837,6.233,3.837,2.618,0,4.29-1.308,4.29-3.116,0-2.167-1.718-2.934-4.6-4.194l-1.579-.678c-4.559-1.942-7.588-4.376-7.588-9.52,0-4.739,3.611-8.346,9.253-8.346,4.017,0,6.905,1.4,8.986,5.059l-4.92,3.159c-1.083-1.942-2.252-2.708-4.066-2.708a2.749,2.749,0,0,0-3.023,2.708c0,1.9,1.174,2.663,3.885,3.837l1.58.677c5.368,2.3,8.4,4.649,8.4,9.925,0,5.688-4.468,8.8-10.47,8.8-5.868,0-9.659-2.8-11.513-6.461Zm-22.319.548c.993,1.761,1.9,3.25,4.066,3.25,2.076,0,3.385-.812,3.385-3.97V286.251h6.318V307.82c0,6.542-3.836,9.52-9.434,9.52a9.808,9.808,0,0,1-9.478-5.771Z" transform="translate(-148.177 -255.379)"></path></g><g id="MySQL" transform="translate(1126.555 3360.239)"><rect id="Rectángulo_90" data-name="Rectángulo 90" width="69" height="67" rx="15" transform="translate(0 -0.239)" fill="url(#linear-gradient)"></rect><g id="mysql-2" data-name="mysql" transform="translate(16.264 6.697)"><path id="Trazado_134" data-name="Trazado 134" d="M0,76.719H2.58V66.534l3.994,8.882a2.2,2.2,0,0,0,2.382,1.455,2.17,2.17,0,0,0,2.357-1.455l3.995-8.882V76.723h2.581V66.551a1.551,1.551,0,0,0-1.216-1.72c-1.96-.612-3.275-.083-3.87,1.241l-3.92,8.766-3.8-8.77c-.571-1.323-1.91-1.852-3.87-1.241A1.551,1.551,0,0,0,0,66.547Zm20.033-8.293h2.579V74.04c-.024.305.1,1.021,1.511,1.043.721.011,5.566,0,5.611,0V68.4H32.32c.011,0,0,9.114,0,9.153.014,2.248-2.789,2.736-4.081,2.774H20.089V78.59h8.161c1.66-.176,1.465-1,1.465-1.279v-.677H24.232c-2.551-.023-4.176-1.137-4.2-2.418,0-.115.055-5.734,0-5.79Z" transform="translate(0.001 -41.555)" fill="#00618a"></path><path id="Trazado_135" data-name="Trazado 135" d="M89.716,77.1h7.418a5.722,5.722,0,0,0,2.382-.5,2.341,2.341,0,0,0,1.662-2.117V72.6c0-.745-.62-1.439-1.836-1.9a6.337,6.337,0,0,0-2.208-.381H94.009c-1.042,0-1.538-.314-1.662-1.009a.749.749,0,0,1-.025-.232V67.9a.688.688,0,0,1,.025-.215c.124-.529.4-.678,1.315-.765.075,0,.174-.017.249-.017h7.368v-1.72H94.034a6.96,6.96,0,0,0-2.084.215c-1.54.48-2.21,1.245-2.21,2.568v1.505c0,1.158,1.315,2.15,3.523,2.382.249.016.5.033.744.033h2.68a1.359,1.359,0,0,1,.273.017c.818.066,1.166.215,1.414.512a.6.6,0,0,1,.2.459v1.505a.86.86,0,0,1-.372.612,1.828,1.828,0,0,1-1.092.364c-.1,0-.174.016-.273.016H89.716v1.72ZM117.274,74.1c0,1.77,1.315,2.762,3.969,2.961q.371.029.744.033h6.724v-1.72h-6.773c-1.513,0-2.084-.381-2.084-1.29v-8.9h-2.58V74.1Zm-14.449.089V68.06c0-1.558,1.094-2.5,3.257-2.8a4.948,4.948,0,0,1,.7-.05h4.9a5.3,5.3,0,0,1,.721.05c2.163.3,3.257,1.243,3.257,2.8v6.132a2.239,2.239,0,0,1-1.535,2.381l2.542,2.294h-3l-2.056-1.856-2.07.131h-2.759a5.719,5.719,0,0,1-1.517-.216c-1.644-.447-2.436-1.309-2.436-2.735Zm2.785-.153a1.139,1.139,0,0,0,.05.265c.153.713.82,1.111,1.836,1.111h2.344l-2.153-1.944h3l1.874,1.7a1.209,1.209,0,0,0,.65-.829.845.845,0,0,0,.025-.249v-5.88a.781.781,0,0,0-.025-.232c-.153-.663-.821-1.044-1.815-1.044H107.5c-1.147,0-1.889.5-1.889,1.276v5.834Z" transform="translate(-89.716 -25.196)" fill="#e48e00"></path><g id="Grupo_1" data-name="Grupo 1" transform="translate(6.126 0)"><path id="Trazado_136" data-name="Trazado 136" d="M154.383,22.079a9.082,9.082,0,0,0-3.833.541c-.294.124-.764.127-.812.5.162.169.187.423.315.631a4.977,4.977,0,0,0,1.037,1.218c.407.307.826.636,1.263.9.776.473,1.643.744,2.39,1.218.441.279.878.631,1.308.947.212.156.356.4.631.5v-.045c-.145-.185-.182-.439-.316-.631l-.586-.586a9.548,9.548,0,0,0-2.075-1.985c-.617-.443-2-1.041-2.255-1.759l-.045-.045a10.05,10.05,0,0,0,1.354-.315c.678-.182,1.284-.135,1.985-.315l.947-.271v-.181c-.354-.363-.607-.844-.992-1.172a28.976,28.976,0,0,0-3.247-2.436c-.629-.4-1.407-.655-2.075-.992-.224-.113-.619-.172-.767-.361a9.7,9.7,0,0,1-.811-1.53c-.566-1.09-1.122-2.281-1.624-3.428a18.581,18.581,0,0,0-.992-2.255,19.916,19.916,0,0,0-7.667-7.4,9.2,9.2,0,0,0-2.526-.812l-1.488-.09a7.886,7.886,0,0,1-.9-.677c-1.131-.715-4.033-2.269-4.87-.229-.529,1.29.79,2.548,1.263,3.2a9.671,9.671,0,0,1,.992,1.488c.156.339.183.679.316,1.037A24.14,24.14,0,0,0,131.338,9.4a9.385,9.385,0,0,0,.722,1.218c.166.227.451.327.5.677a5.524,5.524,0,0,0-.451,1.488,8.638,8.638,0,0,0,.586,6.63c.315.5,1.055,1.588,2.075,1.172.891-.363.688-1.488.947-2.48.057-.226.022-.39.135-.541v.045l.812,1.623A11.055,11.055,0,0,0,139.23,21.9c.468.354.841.966,1.443,1.172v-.045h-.045c-.117-.184-.3-.259-.451-.405a10.354,10.354,0,0,1-1.037-1.172,27.374,27.374,0,0,1-2.21-3.608c-.316-.607-.591-1.276-.857-1.894-.1-.238-.1-.6-.315-.722a9.008,9.008,0,0,0-.947,1.353,11.568,11.568,0,0,0-.541,2.977c-.079.028-.044.009-.09.045-.628-.151-.849-.8-1.082-1.353a8.528,8.528,0,0,1-.18-5.277c.134-.418.742-1.734.5-2.12-.117-.385-.5-.612-.722-.9a7.108,7.108,0,0,1-.722-1.263c-.483-1.094-.709-2.321-1.218-3.428a9.8,9.8,0,0,0-.992-1.53,9.029,9.029,0,0,1-1.082-1.53c-.1-.224-.243-.581-.09-.812a.356.356,0,0,1,.271-.271c.262-.2.99.067,1.263.18a11.029,11.029,0,0,1,1.94.992c.294.191.592.572.947.677h.405c.635.146,1.346.046,1.939.226a11.739,11.739,0,0,1,2.841,1.353,17.573,17.573,0,0,1,6.179,6.769c.234.449.335.877.541,1.353.416.956.939,1.948,1.353,2.886a13.466,13.466,0,0,0,1.4,2.661c.307.409,1.491.629,2.029.857a11.962,11.962,0,0,1,1.353.541c.683.412,1.344.9,1.985,1.354.32.226,1.3.72,1.353,1.127Z" transform="translate(-127.607 -0.003)" fill="#00618a"></path><path id="Trazado_137" data-name="Trazado 137" d="M143.6,12.8a3.209,3.209,0,0,0-.812.09v.045h.045a6.164,6.164,0,0,0,.631.812l.451.947.045-.045a1.1,1.1,0,0,0,.405-.992c-.112-.118-.128-.265-.226-.406-.129-.187-.382-.294-.541-.451Z" transform="translate(-136.982 -7.904)" fill="#00618a" fill-rule="evenodd"></path></g><path id="Trazado_138" data-name="Trazado 138" d="M194.855,88.637a1.9,1.9,0,1,0,1.9-1.9A1.876,1.876,0,0,0,194.855,88.637Zm3.377,0a1.476,1.476,0,1,1-1.476-1.506A1.471,1.471,0,0,1,198.232,88.637Zm-.964,1.085h.426l-.623-.953c.335-.036.588-.2.588-.593,0-.441-.279-.623-.816-.623h-.847v2.17h.365v-.938h.34l.568.938Zm-.908-1.243v-.623h.421c.218,0,.482.041.482.294,0,.3-.238.33-.512.33h-.39Z" transform="translate(-154.645 -36.868)" fill="#e48e00" fill-rule="evenodd"></path></g></g><g id="PHP" transform="translate(1126.555 3277)"><rect id="Rectángulo_87" data-name="Rectángulo 87" width="69" height="67" rx="15" fill="url(#linear-gradient-4)"></rect><g id="PHP-2" data-name="PHP" transform="translate(6.697 19.135)"><g id="g3476" transform="translate(0 0)"><g id="Grupo_4" data-name="Grupo 4" transform="translate(0 0)"><g id="PHP-3" data-name="PHP"><g id="g3484" transform="translate(0.424 5.911)"><path id="path3486" d="M-73.225-93.108a6.243,6.243,0,0,0,3.79-.936A5.065,5.065,0,0,0-67.8-97.208c.269-1.388.167-2.358-.3-2.881s-1.525-.805-3.1-.805h-2.73l-1.513,7.787Zm-8.928,9.592a.424.424,0,0,1-.328-.155.424.424,0,0,1-.089-.351l4.011-20.635a.425.425,0,0,1,.417-.344H-69.5c2.717,0,4.739.738,6.009,2.193s1.672,3.507,1.173,6.077a9.7,9.7,0,0,1-1.039,2.889,9.675,9.675,0,0,1-1.913,2.4,8.392,8.392,0,0,1-3.148,1.886A14.26,14.26,0,0,1-72.742-89h-3.5l-1,5.142a.425.425,0,0,1-.417.344Z" transform="translate(82.578 105)"></path></g><g id="g3488" transform="translate(0 5.486)"><path id="path3490" d="M-73.767-38.795h2.38c1.9,0,2.56.417,2.784.665a3.12,3.12,0,0,1,.2,2.515,4.669,4.669,0,0,1-1.481,2.909,5.855,5.855,0,0,1-3.531.848h-1.7Zm4.082-4.955h-8.644a.849.849,0,0,0-.834.687l-4.011,20.635a.85.85,0,0,0,.178.7.849.849,0,0,0,.656.309h4.5a.849.849,0,0,0,.834-.687l.933-4.8h3.15a14.675,14.675,0,0,0,4.457-.577,8.816,8.816,0,0,0,3.306-1.98,10.1,10.1,0,0,0,1.993-2.5,10.123,10.123,0,0,0,1.086-3.016c.526-2.7.1-4.87-1.27-6.437-1.355-1.551-3.485-2.338-6.329-2.338m-6.461,12.742h2.734a6.6,6.6,0,0,0,4.049-1.024,5.439,5.439,0,0,0,1.8-3.42q.446-2.3-.406-3.246t-3.415-.946h-3.08l-1.679,8.636M-69.685-42.9q3.9,0,5.69,2.047t1.076,5.716a9.239,9.239,0,0,1-.993,2.763,9.215,9.215,0,0,1-1.829,2.291,7.939,7.939,0,0,1-2.992,1.8,13.779,13.779,0,0,1-4.194.535h-3.85l-1.066,5.486h-4.5L-78.329-42.9h8.644" transform="translate(83.189 43.75)" fill="#fff"></path></g><g id="g3492" transform="translate(19.561 0.425)"><path id="path3494" d="M-89.505-168.2a.424.424,0,0,1-.328-.155.424.424,0,0,1-.089-.351l1.774-9.13c.169-.868.127-1.492-.117-1.755-.15-.161-.6-.431-1.926-.431h-3.214l-2.231,11.478a.425.425,0,0,1-.417.344h-4.46a.424.424,0,0,1-.328-.155.424.424,0,0,1-.089-.351l4.011-20.635a.425.425,0,0,1,.417-.344h4.46a.425.425,0,0,1,.328.154.425.425,0,0,1,.089.351l-.968,4.98h3.458c2.634,0,4.42.464,5.46,1.42,1.06.975,1.391,2.533.984,4.632l-1.866,9.6a.425.425,0,0,1-.417.344Z" transform="translate(100.938 189.688)"></path></g><g id="g3496" transform="translate(19.137)"><path id="path3498" d="M-72.966,0h-4.46a.849.849,0,0,0-.834.687L-82.27,21.322a.849.849,0,0,0,.178.7.849.849,0,0,0,.655.309h4.46a.85.85,0,0,0,.834-.687l2.164-11.134h2.864c1.326,0,1.6.283,1.615.3.08.087.186.487.012,1.385l-1.774,9.13a.849.849,0,0,0,.178.7.849.849,0,0,0,.655.309h4.53a.85.85,0,0,0,.834-.687l1.866-9.6c.438-2.254.063-3.945-1.113-5.026-1.122-1.031-3-1.532-5.748-1.532H-73l.87-4.474a.85.85,0,0,0-.178-.7A.849.849,0,0,0-72.966,0m0,.849-1.066,5.486h3.973q3.75,0,5.173,1.308t.854,4.238l-1.866,9.6h-4.53l1.774-9.13a2.478,2.478,0,0,0-.223-2.125,3.134,3.134,0,0,0-2.238-.567h-3.564l-2.3,11.822h-4.46L-77.425.849h4.46" transform="translate(82.285)" fill="#fff"></path></g><g id="g3500" transform="translate(35.51 5.911)"><path id="path3502" d="M-73.225-93.108a6.243,6.243,0,0,0,3.79-.936A5.065,5.065,0,0,0-67.8-97.208c.269-1.388.167-2.358-.305-2.881s-1.525-.805-3.1-.805h-2.73l-1.513,7.787Zm-8.928,9.592a.424.424,0,0,1-.328-.155.425.425,0,0,1-.089-.351l4.011-20.635a.425.425,0,0,1,.417-.344H-69.5c2.717,0,4.739.738,6.01,2.193s1.672,3.507,1.173,6.077a9.707,9.707,0,0,1-1.039,2.889,9.675,9.675,0,0,1-1.913,2.4,8.392,8.392,0,0,1-3.148,1.886A14.26,14.26,0,0,1-72.741-89h-3.5l-1,5.142a.425.425,0,0,1-.417.344Z" transform="translate(82.578 105)"></path></g><g id="g3504" transform="translate(35.085 5.486)"><path id="path3506" d="M-73.766-38.795h2.38c1.9,0,2.56.417,2.784.665a3.118,3.118,0,0,1,.2,2.515,4.67,4.67,0,0,1-1.481,2.909,5.855,5.855,0,0,1-3.531.848h-1.7Zm4.082-4.955h-8.644a.849.849,0,0,0-.834.687l-4.011,20.635a.85.85,0,0,0,.178.7.849.849,0,0,0,.655.309h4.5a.85.85,0,0,0,.834-.687l.933-4.8h3.15a14.675,14.675,0,0,0,4.457-.577,8.816,8.816,0,0,0,3.307-1.98,10.1,10.1,0,0,0,1.993-2.5,10.123,10.123,0,0,0,1.086-3.016c.526-2.7.1-4.871-1.27-6.437-1.355-1.551-3.485-2.338-6.329-2.338m-6.46,12.742h2.734a6.6,6.6,0,0,0,4.049-1.024,5.438,5.438,0,0,0,1.8-3.42q.446-2.3-.406-3.246t-3.415-.946h-3.08l-1.678,8.636m6.46-11.892q3.9,0,5.69,2.047t1.076,5.716a9.239,9.239,0,0,1-.993,2.763,9.215,9.215,0,0,1-1.829,2.291,7.939,7.939,0,0,1-2.992,1.8,13.779,13.779,0,0,1-4.194.535h-3.85l-1.066,5.486h-4.5L-78.328-42.9h8.644" transform="translate(83.188 43.75)" fill="#fff"></path></g></g></g></g></g></g><g id="SASS" transform="translate(1308.344 3445.392)"><rect id="Rectángulo_88" data-name="Rectángulo 88" width="69" height="67" rx="15" transform="translate(0.213 -0.392)" fill="url(#linear-gradient-5)"></rect><path id="sass-2" data-name="sass" d="M44.24,22.419a10.615,10.615,0,0,0-4.67,1.087,9.605,9.605,0,0,1-1.047-2.415,6.681,6.681,0,0,1-.091-2.033,16.291,16.291,0,0,1,.614-2.194c-.01-.091-.111-.533-1.147-.543s-1.932.2-2.033.473a11.559,11.559,0,0,0-.433,1.54,36.631,36.631,0,0,1-3.15,6.059,6.182,6.182,0,0,1-.715-1.771,6.68,6.68,0,0,1-.09-2.033,16.3,16.3,0,0,1,.614-2.194c-.01-.091-.111-.533-1.147-.543s-1.932.2-2.033.473-.211.916-.433,1.54-2.728,6.22-3.382,7.679c-.332.745-.624,1.339-.835,1.741s-.01.03-.03.07l-.282.533v.01c-.141.252-.292.493-.362.493a3.356,3.356,0,0,1,.02-1.6c.372-1.943,1.278-4.972,1.268-5.083,0-.05.171-.584-.584-.855a.917.917,0,0,0-1.057.181c-.06,0-.111.161-.111.161s.815-3.412-1.56-3.412c-1.49,0-3.543,1.62-4.559,3.1-.644.352-2.013,1.1-3.462,1.892-.554.3-1.127.624-1.671.916l-.111-.121c-2.878-3.07-8.2-5.244-7.981-9.37.081-1.5.6-5.455,10.226-10.246C21.887,2.028,28.2,3.1,29.295,5.5c1.56,3.422-3.372,9.783-11.564,10.7-3.12.352-4.761-.855-5.173-1.308-.433-.473-.493-.493-.654-.4-.262.141-.1.564,0,.815a4.858,4.858,0,0,0,2.959,2.325c1.5.493,5.163.765,9.592-.946,4.962-1.922,8.837-7.257,7.7-11.715C31,.428,23.467-1.062,16.352,1.464A35.821,35.821,0,0,0,4.224,8.419C.3,12.083-.325,15.283-.064,16.612.852,21.352,7.384,24.442,10,26.726c-.131.07-.252.141-.362.2-1.308.644-6.29,3.251-7.538,6.008C.691,36.056,2.322,38.3,3.409,38.6a8.043,8.043,0,0,0,8.666-3.513,8.691,8.691,0,0,0,.775-8l-.03-.06,1.027-.6c.664-.393,1.319-.755,1.892-1.067a12.531,12.531,0,0,0-.674,3.422,7.136,7.136,0,0,0,1.54,4.972,1.7,1.7,0,0,0,1.238.4c1.107,0,1.61-.916,2.164-2.013.684-1.339,1.288-2.889,1.288-2.889s-.755,4.2,1.308,4.2c.755,0,1.51-.976,1.852-1.479v.01s.02-.03.06-.1.083-.126.121-.191v-.02c.3-.523.976-1.721,1.983-3.7,1.3-2.556,2.546-5.757,2.546-5.757a18.37,18.37,0,0,0,.493,2.073A19.841,19.841,0,0,0,30.734,26.7c-.3.423-.483.664-.483.664l.01.01c-.241.322-.513.664-.795,1.006a29.251,29.251,0,0,0-2.415,3.03.829.829,0,0,0,.221,1.107,2.015,2.015,0,0,0,1.268.2,5.649,5.649,0,0,0,1.892-.433,6.553,6.553,0,0,0,1.63-.855,3.63,3.63,0,0,0,1.56-3.21,6.455,6.455,0,0,0-.594-2.265c.091-.131.181-.262.272-.4a42.485,42.485,0,0,0,2.818-4.881,18.369,18.369,0,0,0,.493,2.073,14.536,14.536,0,0,0,.916,2.073,8.948,8.948,0,0,0-2.748,3.553c-.594,1.711-.131,2.486.745,2.667a2.679,2.679,0,0,0,1.379-.282,6.248,6.248,0,0,0,1.741-.9,3.937,3.937,0,0,0,1.922-3.18,6.1,6.1,0,0,0-.433-1.882,9.805,9.805,0,0,1,4.992-.574c4.479.523,5.364,3.321,5.193,4.489A3.006,3.006,0,0,1,48.9,30.722c-.312.191-.413.262-.382.4.04.211.181.2.453.161a3.484,3.484,0,0,0,2.436-3.11c.121-2.768-2.506-5.788-7.166-5.757ZM9.7,34.063C8.219,35.684,6.136,36.3,5.25,35.774c-.956-.554-.584-2.939,1.238-4.66a23.682,23.682,0,0,1,3.492-2.607c.211-.131.533-.322.916-.554a1.073,1.073,0,0,1,.1-.06c.07-.04.151-.091.231-.141a6.42,6.42,0,0,1-1.53,6.31Zm10.819-7.357c-.513,1.258-1.6,4.489-2.254,4.308-.564-.151-.906-2.6-.111-5.012a11.189,11.189,0,0,1,1.761-3.231c.815-.906,1.7-1.208,1.922-.835C22.1,22.419,20.84,25.921,20.518,26.706Zm8.927,4.267c-.221.111-.423.191-.513.131-.07-.04.09-.191.09-.191s1.117-1.2,1.56-1.751c.252-.322.554-.694.876-1.117v.121c0,1.449-1.389,2.415-2.013,2.808ZM36.33,29.4c-.161-.121-.141-.493.4-1.661a6.223,6.223,0,0,1,1.53-1.973,2.49,2.49,0,0,1,.151.866A2.832,2.832,0,0,1,36.33,29.4Z" transform="translate(9.683 14.111)" fill="#fff"></path></g><g id="WP" transform="translate(1217.449 3277)"><rect id="Rectángulo_89" data-name="Rectángulo 89" width="69" height="67" rx="15" transform="translate(0.105)" fill="url(#linear-gradient-6)"></rect><g id="WP-2" data-name="WP" transform="translate(8.611 7.654)"><g id="Grupo_3" data-name="Grupo 3" transform="translate(0 0)"><g id="Grupo_2" data-name="Grupo 2" transform="translate(0)"><path id="Trazado_146" data-name="Trazado 146" d="M8.708,49.056A22.569,22.569,0,0,0,21.426,69.364L10.662,39.872A22.48,22.48,0,0,0,8.708,49.056Z" transform="translate(-4.969 -22.752)" fill="#fff"></path><path id="Trazado_147" data-name="Trazado 147" d="M51.439,30.134a11.881,11.881,0,0,0-1.861-6.223c-1.144-1.859-2.216-3.433-2.216-5.292a3.908,3.908,0,0,1,3.789-4.005c.1,0,.195.012.292.018a22.561,22.561,0,0,0-34.092,4.247c.529.016,1.028.027,1.452.027,2.36,0,6.014-.286,6.014-.286a.932.932,0,0,1,.145,1.859s-1.222.144-2.583.215L30.6,45.136l4.938-14.81L32.02,20.693c-1.215-.071-2.366-.215-2.366-.215a.932.932,0,0,1,.143-1.859s3.727.286,5.944.286c2.36,0,6.014-.286,6.014-.286a.932.932,0,0,1,.145,1.859s-1.225.144-2.583.215L47.471,44.95l2.251-7.521C50.7,34.307,51.439,32.066,51.439,30.134Z" transform="translate(-9.901 -4.969)" fill="#fff"></path><path id="Trazado_148" data-name="Trazado 148" d="M53.186,65.857l-6.77,19.674a22.576,22.576,0,0,0,13.868-.36,1.981,1.981,0,0,1-.161-.311Z" transform="translate(-26.486 -37.58)" fill="#fff"></path><path id="Trazado_149" data-name="Trazado 149" d="M96.138,36.046a17.311,17.311,0,0,1,.152,2.32,21.286,21.286,0,0,1-1.716,8.083L87.681,66.378a22.569,22.569,0,0,0,8.457-30.332Z" transform="translate(-50.033 -20.569)" fill="#fff"></path><path id="Trazado_150" data-name="Trazado 150" d="M26.3,0A26.3,26.3,0,1,0,52.61,26.3,26.334,26.334,0,0,0,26.3,0Zm0,51.4A25.1,25.1,0,1,1,51.4,26.3,25.128,25.128,0,0,1,26.3,51.4Z" transform="translate(0 0)" fill="#fff"></path></g></g></g></g><g id="BOOTSTRAP" transform="translate(1399.236 3277)"><rect id="Rectángulo_84" data-name="Rectángulo 84" width="69" height="67" rx="15" transform="translate(0.318)" fill="url(#linear-gradient)"></rect><path id="bootstrap-2" data-name="bootstrap" d="M12.284,0a5.893,5.893,0,0,0-5.76,6.157A33.112,33.112,0,0,1,5.489,16.471C4.482,19.73,2.78,21.8,0,22.061v2.993c2.78.266,4.482,2.33,5.489,5.59A33.108,33.108,0,0,1,6.524,40.958a5.893,5.893,0,0,0,5.761,6.157H46.864a5.892,5.892,0,0,0,5.759-6.157,33.112,33.112,0,0,1,1.035-10.314c1.007-3.26,2.7-5.325,5.485-5.59V22.061c-2.78-.266-4.478-2.33-5.485-5.59A33.107,33.107,0,0,1,52.624,6.157,5.892,5.892,0,0,0,46.864,0H12.284ZM40.1,29c0,4.411-3.29,7.086-8.75,7.086H22.054a1,1,0,0,1-1-1V12.029a1,1,0,0,1,1-1h9.241c4.553,0,7.54,2.466,7.54,6.252a5.6,5.6,0,0,1-4.571,5.453v.139c3.486.382,5.833,2.8,5.833,6.131ZM30.334,14.2h-5.3V21.69H29.5c3.45,0,5.353-1.389,5.353-3.873C34.851,15.49,33.215,14.2,30.334,14.2Zm-5.3,10.455v8.249h5.494c3.593,0,5.5-1.442,5.5-4.151s-1.956-4.1-5.726-4.1H25.035Z" transform="translate(4.784 9.568)" fill-rule="evenodd" fill="url(#linear-gradient-8)"></path></g><g id="CSS" transform="translate(1308.344 3277)"><rect id="Rectángulo_85" data-name="Rectángulo 85" width="69" height="67" rx="15" transform="translate(0.213)" fill="url(#linear-gradient)"></rect><g id="CSS-2" data-name="CSS" transform="translate(12.438 8.611)"><g id="g3013" transform="translate(0 0)"><path id="polygon2989" d="M118.523,100.62l-4,44.794L96.551,150.4l-17.924-4.976-3.994-44.8Z" transform="translate(-74.633 -100.62)" fill="#264de4"></path><path id="polygon2991" d="M270.523,169.172l3.417-38.278H256v42.3Z" transform="translate(-234.055 -127.231)" fill="#2965f1"></path><path id="polygon2993" d="M150.31,268.217l.492,5.495h12.3v-5.495Z" transform="translate(-141.153 -247.938)" fill="#ebebeb"></path><path id="polygon2995" d="M155.91,176.3H142.132l.5,5.495H155.91Z" transform="translate(-133.965 -167.147)" fill="#ebebeb"></path><path id="polygon2997" d="M168.459,348.078v-5.717l-.024.006-6.119-1.652-.391-4.382h-5.516l.77,8.627,11.255,3.125Z" transform="translate(-146.514 -307.812)" fill="#ebebeb"></path><path id="polygon3005" d="M262.609,192.921l-.638,7.126-6.128,1.654v5.716l11.264-3.122.083-.928,1.291-14.465.134-1.475.992-11.121H255.843V181.8h7.742l-.5,5.627h-7.243v5.495Z" transform="translate(-233.917 -167.147)" fill="#fff"></path></g></g></g><rect id="Rectángulo_93" data-name="Rectángulo 93" width="69" height="67" rx="15" transform="translate(1399.555 3360)" fill="#ff2bc2"></rect><g id="adobe-xd" transform="translate(1404.021 3364.066)"><rect id="Rectángulo_94" data-name="Rectángulo 94" width="61" height="60" rx="15" transform="translate(-0.465 -0.066)" fill="#2e001e"></rect><path id="Trazado_195" data-name="Trazado 195" d="M79.678,67.256a3.577,3.577,0,0,0-1.549-.275c-3.365,0-5.608,2.664-5.608,7.087,0,5.054,2.3,7.087,5.287,7.087a4.911,4.911,0,0,0,1.843-.3v-13.6ZM67.715,74.288c0-6.4,4.005-11.4,10.574-11.4a11.514,11.514,0,0,1,1.389.055V55.8a.271.271,0,0,1,.267-.275h4.3c.214,0,.267.082.267.22V80.853a20.119,20.119,0,0,0,.134,2.692c0,.192,0,.22-.16.3a15.538,15.538,0,0,1-6.836,1.593C71.854,85.44,67.715,81.759,67.715,74.288Zm-9.106-4.45,7.477,14.915c.134.22.053.439-.16.439H61.28a.523.523,0,0,1-.561-.357Q58.156,79.4,55.485,73.546h-.053c-1.6,3.681-3.365,7.691-5.074,11.317a.511.511,0,0,1-.481.3H45.445c-.267,0-.294-.22-.16-.385L52.6,70.305,45.525,55.912a.243.243,0,0,1,.187-.412H50.3c.267,0,.4.055.481.3,1.682,3.653,3.391,7.251,4.993,10.932h.053c1.549-3.626,3.258-7.279,4.887-10.877.134-.22.214-.357.481-.357h4.3c.214,0,.294.165.16.412Z" transform="translate(-35.085 -40.308)" fill="#ff2bc2"></path></g><g id="react-2" transform="translate(1399.238 3445.392)"><path id="Trazado_196" data-name="Trazado 196" d="M250.906,111.495c0-4.982-6.239-9.7-15.8-12.631,2.207-9.75,1.226-17.506-3.1-19.99a6.721,6.721,0,0,0-3.434-.858v3.418a3.55,3.55,0,0,1,1.748.4c2.085,1.2,2.989,5.749,2.284,11.6-.169,1.441-.445,2.959-.782,4.507a74.288,74.288,0,0,0-9.734-1.671,74.779,74.779,0,0,0-6.377-7.665c5-4.645,9.688-7.189,12.877-7.189V78c-4.216,0-9.734,3-15.314,8.217-5.58-5.181-11.1-8.155-15.314-8.155V81.48c3.173,0,7.879,2.529,12.877,7.144a72.4,72.4,0,0,0-6.331,7.649,71.585,71.585,0,0,0-9.75,1.686c-.353-1.533-.613-3.02-.8-4.446-.721-5.856.169-10.409,2.238-11.62a3.412,3.412,0,0,1,1.763-.4V78.077a6.835,6.835,0,0,0-3.464.858c-4.308,2.483-5.273,10.225-3.051,19.944-9.535,2.943-15.743,7.649-15.743,12.616,0,4.982,6.239,9.7,15.8,12.631-2.207,9.749-1.226,17.506,3.1,19.99a6.739,6.739,0,0,0,3.449.858c4.216,0,9.734-3,15.314-8.217,5.58,5.181,11.1,8.155,15.314,8.155a6.835,6.835,0,0,0,3.464-.858c4.308-2.483,5.273-10.225,3.051-19.944,9.5-2.928,15.713-7.649,15.713-12.616ZM230.947,101.27c-.567,1.977-1.272,4.016-2.069,6.055-.628-1.226-1.288-2.453-2.008-3.679-.705-1.226-1.456-2.422-2.207-3.587C226.839,100.381,228.939,100.779,230.947,101.27ZM223.926,117.6c-1.2,2.069-2.422,4.032-3.694,5.856-2.284.2-4.6.307-6.929.307-2.315,0-4.63-.107-6.9-.291q-1.909-2.736-3.71-5.825-1.748-3.012-3.189-6.1c.95-2.054,2.023-4.108,3.173-6.116,1.2-2.069,2.422-4.032,3.694-5.856,2.284-.2,4.6-.307,6.929-.307,2.315,0,4.629.107,6.9.291q1.909,2.736,3.71,5.825,1.748,3.012,3.189,6.1c-.966,2.054-2.023,4.108-3.173,6.116Zm4.951-1.993c.828,2.054,1.533,4.108,2.115,6.1-2.008.491-4.124.9-6.316,1.226.751-1.18,1.5-2.391,2.207-3.633.705-1.226,1.364-2.468,1.993-3.694Zm-15.544,16.356a63.191,63.191,0,0,1-4.262-4.905c1.38.061,2.79.107,4.216.107,1.441,0,2.867-.031,4.262-.107A59.834,59.834,0,0,1,213.334,131.959Zm-11.405-9.029c-2.177-.322-4.277-.72-6.285-1.211.567-1.977,1.272-4.016,2.069-6.055.628,1.226,1.288,2.453,2.008,3.679S201.178,121.765,201.929,122.93Zm11.328-31.9a63.2,63.2,0,0,1,4.262,4.905c-1.38-.061-2.79-.107-4.216-.107-1.441,0-2.867.031-4.262.107A59.835,59.835,0,0,1,213.257,91.03Zm-11.344,9.029c-.751,1.18-1.5,2.391-2.207,3.633-.705,1.226-1.364,2.453-1.993,3.679-.828-2.054-1.533-4.108-2.115-6.1,2.008-.475,4.124-.889,6.316-1.211ZM188.04,119.251c-5.427-2.315-8.937-5.35-8.937-7.757s3.51-5.457,8.937-7.757c1.318-.567,2.759-1.073,4.246-1.548a73.627,73.627,0,0,0,3.449,9.336,72.584,72.584,0,0,0-3.4,9.29c-1.518-.475-2.959-1-4.292-1.564Zm8.247,21.906c-2.085-1.2-2.989-5.749-2.284-11.6.169-1.441.445-2.959.782-4.507a74.289,74.289,0,0,0,9.734,1.671,74.77,74.77,0,0,0,6.377,7.665c-5,4.645-9.688,7.189-12.877,7.189A3.659,3.659,0,0,1,196.288,141.157Zm36.361-11.681c.72,5.856-.169,10.409-2.238,11.62a3.412,3.412,0,0,1-1.763.4c-3.173,0-7.879-2.529-12.877-7.144A72.4,72.4,0,0,0,222.1,126.7a71.584,71.584,0,0,0,9.75-1.686A42.916,42.916,0,0,1,232.649,129.476Zm5.9-10.225c-1.318.567-2.759,1.073-4.246,1.548a73.624,73.624,0,0,0-3.449-9.336,72.586,72.586,0,0,0,3.4-9.29c1.518.475,2.959,1,4.308,1.564,5.427,2.315,8.937,5.35,8.937,7.757-.015,2.407-3.526,5.457-8.952,7.757Z" transform="translate(-175.7 -78)" fill="#61dafb"></path><ellipse id="Elipse_14" data-name="Elipse 14" cx="7.006" cy="7.006" rx="7.006" ry="7.006" transform="translate(30.582 26.489)" fill="#61dafb"></ellipse></g></g></svg> 