<svg id="Capa_1" data-name="Capa 1" xmlns="http://www.w3.org/2000/svg" viewBox="0 0 200 100"><polygon points="72.71 51.85 63.02 51.85 64.13 35.01 57.83 51.85 48.84 51.85 63.11 13.79 72.68 13.79 71.58 30.86 77.99 13.79 86.98 13.79 72.71 51.85"/><polygon points="73.88 51.85 88.15 13.79 97.14 13.79 82.87 51.85 73.88 51.85"/><path d="M47.8,38.73C35.23,53.49,23.37,73.13,33.85,82.18A19.45,19.45,0,0,0,47,87h0c6.6,0,13.16-2.65,18.29-4.7,8.65-3.46,104.26-45,104.26-45,.92-.46.75-1-.41-.75-.46.11-104.08,28.2-104.08,28.2C52,68.46,37,60.41,47.8,38.73"/><path d="M143.78,13.67a1.92,1.92,0,1,0,2,1.92,1.89,1.89,0,0,0-2-1.92m0,3.29a1.37,1.37,0,1,1,1.38-1.37A1.34,1.34,0,0,1,143.78,17"/><path d="M144.11,15.73a.48.48,0,0,0,.5-.54c0-.5-.32-.63-.87-.63H143v2.07h.52v-.88h.09l.48.88h.59Zm-.33-.34h-.3v-.47h.25c.16,0,.33,0,.33.21s-.1.26-.28.26"/><path d="M137.85,20.13l2.42-6.34H112.82l-9.43,11.42,4.35-11.42H98.63L84.47,51.85h9l6-15.92.42,15.92,27.6-.06,2.63-7.32h-10.5l3.45-9.23h8.65l2.66-7.09h-8.65l3-8Zm-29,29.18-.57-19.84,13.6-14.93Z"/></svg>