<svg id="Capa_1" data-name="Capa 1" xmlns="http://www.w3.org/2000/svg" viewBox="0 0 200 100"><path d="M186.36,32a3.74,3.74,0,0,1,1.42.27A3.44,3.44,0,0,1,189,33a3.39,3.39,0,0,1,.78,1.16,3.72,3.72,0,0,1,.27,1.41,3.59,3.59,0,0,1-.27,1.39,3.3,3.3,0,0,1-.78,1.16,3.56,3.56,0,0,1-1.2.8,3.49,3.49,0,0,1-1.39.28A3.61,3.61,0,0,1,185,39a3.72,3.72,0,0,1-2-2,3.61,3.61,0,0,1-.27-1.38A3.7,3.7,0,0,1,183.82,33a3.4,3.4,0,0,1,1.15-.78,3.62,3.62,0,0,1,1.39-.27m3.24,3.65a3.27,3.27,0,0,0-.24-1.25,2.89,2.89,0,0,0-.68-1,3.14,3.14,0,0,0-1.06-.71,3.29,3.29,0,0,0-1.26-.24,3.09,3.09,0,0,0-2.26.93,3.48,3.48,0,0,0-.72,1.07,3.08,3.08,0,0,0-.25,1.23,3,3,0,0,0,.25,1.22,3.24,3.24,0,0,0,.71,1.06,3.33,3.33,0,0,0,1,.7,3,3,0,0,0,1.22.25,3.36,3.36,0,0,0,1.25-.25,3.42,3.42,0,0,0,1.07-.72,3,3,0,0,0,.69-1A3.15,3.15,0,0,0,189.6,35.62Zm-3.13-2.17a2.48,2.48,0,0,1,1.31.28,1,1,0,0,1,.42.88,1.11,1.11,0,0,1-.26.74,1.13,1.13,0,0,1-.72.36l.93,1.93h-.72l-.88-1.84h-1v1.84h-.63V33.45Zm-.12.43h-.78v1.5h.78a1.86,1.86,0,0,0,.93-.16.61.61,0,0,0,.27-.57.64.64,0,0,0-.28-.59A1.79,1.79,0,0,0,186.35,33.88Z"/><path d="M17.31,58q0,6.69,3.69,10.45c2.47,2.51,5.87,3.76,10.25,3.76a14.17,14.17,0,0,0,10.37-3.88,13.66,13.66,0,0,0,4-10.2c0-4.61-1.25-8.19-3.78-10.77s-6-3.88-10.47-3.88-7.77,1.28-10.26,3.85S17.31,53.47,17.31,58m98-3h25.31v-.5a10.39,10.39,0,0,0-3.34-8.21q-3.35-2.94-9.29-3a12.69,12.69,0,0,0-8.94,3.15A11.91,11.91,0,0,0,115.33,55ZM146.5,65V59.48H115.05q.11,6.2,3.57,9.54t9.86,3.35a13.55,13.55,0,0,0,7.63-1.93A7.68,7.68,0,0,0,139.6,65Zm0,11.42v-8.7a12.47,12.47,0,0,1-5.14,6.48c-3.19,2-7.7,3-13.5,3q-9.36,0-14.7-5t-5.35-13.86q0-8.16,4.55-13.32h-.51q-7.59,0-11.13,3.35T97.17,59V76.44H90v-17H57.79q.12,6.2,3.58,9.54t9.85,3.35a13.55,13.55,0,0,0,7.63-1.93A7.68,7.68,0,0,0,82.34,65h7.6a12.87,12.87,0,0,1-5.84,9.2c-3.18,2-7.69,3-13.49,3q-9.36,0-14.71-5a16,16,0,0,1-3.77-5.4q0,2.79.15,4.89c.11,1.63.27,3.22.5,4.73H45.57L45,70.75a17.31,17.31,0,0,1-6.57,5,21.66,21.66,0,0,1-8.69,1.63q-9,0-14.4-5.27T10,57.86q0-8.8,5.46-14.07T30,38.53A22.38,22.38,0,0,1,38.25,40a21.22,21.22,0,0,1,6.86,4.5V23.34h7V49.81a17.31,17.31,0,0,1,4.1-5.92q5.67-5.37,15.36-5.36,9.18,0,14.13,4.93A16.18,16.18,0,0,1,90,51.27c0-1.73-.06-3.51-.16-5.34q-.17-3.15-.49-6.5h7.28l.35,6.9a13,13,0,0,1,5.68-5.87,20.28,20.28,0,0,1,9.45-1.93h1.33V44l.08-.07q5.67-5.37,15.36-5.36,9.18,0,14.13,4.93A15.53,15.53,0,0,1,146.5,49V23.34h7.09v31l19.14-14.9h9.37L161.69,55.27l23.58,21.17H175L153.59,56V76.44ZM58.07,55H83.39v-.5a10.42,10.42,0,0,0-3.34-8.21q-3.36-2.94-9.29-3a12.72,12.72,0,0,0-9,3.15A11.91,11.91,0,0,0,58.07,55Z"/></svg>