<?xml version="1.0" encoding="utf-8"?>
<!-- Generator: Adobe Illustrator 24.2.3, SVG Export Plug-In . SVG Version: 6.00 Build 0)  -->
<svg version="1.1" id="Capa_1" xmlns="http://www.w3.org/2000/svg" xmlns:xlink="http://www.w3.org/1999/xlink" x="0px" y="0px"
	 viewBox="0 0 200 100" style="enable-background:new 0 0 200 100;" xml:space="preserve">
<style type="text/css">
	.st0{fill-rule:evenodd;clip-rule:evenodd;}
</style>
<g>
	<path d="M190.21,55.52V44.48c0-1.03,0.13-1.67,0.4-1.94c0.4-0.41,1.04-0.62,1.92-0.62h0.78v-0.47h-9.21v0.47h0.76
		c0.51,0,0.99,0.1,1.46,0.3c0.33,0.15,0.54,0.33,0.65,0.54c0.14,0.28,0.21,0.85,0.21,1.71v11.04c0,1.03-0.13,1.67-0.38,1.94
		c-0.4,0.41-1.05,0.62-1.93,0.62h-0.76v0.47h9.21v-0.47h-0.78c-0.51,0-0.99-0.1-1.44-0.3c-0.34-0.15-0.56-0.33-0.67-0.54
		C190.28,56.96,190.21,56.39,190.21,55.52L190.21,55.52z M168.07,58.55h5.74v-0.47c-1.17-0.1-2.12-0.34-2.85-0.71
		c-0.73-0.37-1.6-1.12-2.62-2.24l-4.44-4.9c1.81-0.32,3.14-0.87,4-1.64c0.86-0.77,1.29-1.68,1.29-2.73c0-0.98-0.38-1.83-1.13-2.54
		c-0.76-0.71-1.68-1.2-2.76-1.46c-1.08-0.26-2.77-0.4-5.05-0.4h-7.83v0.47h0.81c0.81,0,1.43,0.18,1.84,0.55
		c0.3,0.26,0.44,0.93,0.44,2v11.04c0,0.98-0.11,1.59-0.33,1.85c-0.39,0.47-1.04,0.71-1.95,0.71h-0.81v0.47h9.21v-0.47h-0.84
		c-0.8,0-1.41-0.18-1.81-0.55c-0.3-0.26-0.44-0.93-0.44-2v-4.97c0.17,0.01,0.33,0.01,0.49,0.02c0.16,0,0.31,0.01,0.44,0.01
		c0.34,0,0.78-0.01,1.32-0.03L168.07,58.55L168.07,58.55z M159.43,49.77c-0.1,0-0.22,0-0.36-0.01c-0.15,0-0.32-0.01-0.52-0.01v-7.11
		c1.05-0.16,1.88-0.24,2.49-0.24c1.38,0,2.5,0.33,3.34,1c0.84,0.67,1.26,1.54,1.26,2.6c0,1.09-0.52,1.99-1.56,2.7
		C163.02,49.42,161.48,49.77,159.43,49.77L159.43,49.77z M134.81,58.55h8.48v-0.47c-0.88-0.04-1.56-0.23-2.05-0.57
		c-0.49-0.34-1.04-1.08-1.64-2.23l-7.48-14.22h-0.55L124,55.13c-0.66,1.24-1.25,2.05-1.79,2.46c-0.26,0.2-0.85,0.37-1.74,0.49v0.47
		h6.77v-0.47c-1.04-0.06-1.71-0.19-2.02-0.38c-0.31-0.2-0.47-0.43-0.47-0.69c0-0.33,0.18-0.82,0.54-1.49l1.46-2.7h8.32l1.3,2.46
		c0.42,0.8,0.63,1.38,0.63,1.75c0,0.28-0.15,0.51-0.45,0.71c-0.3,0.19-0.88,0.31-1.74,0.34V58.55L134.81,58.55z M134.62,51.89h-7.39
		l3.74-6.91L134.62,51.89L134.62,51.89z M112.21,49.7h0.4v-0.48h-8.32v0.48c0.87,0,1.47,0.07,1.82,0.21
		c0.34,0.14,0.6,0.34,0.76,0.61s0.25,0.83,0.25,1.68v4.94c-0.69,0.31-1.4,0.55-2.14,0.71c-0.74,0.16-1.51,0.24-2.3,0.24
		c-1.35,0-2.67-0.31-3.96-0.94c-1.28-0.63-2.32-1.61-3.12-2.96s-1.19-2.83-1.19-4.46c0-2.01,0.6-3.74,1.79-5.19
		c1.43-1.72,3.51-2.58,6.25-2.58c2.01,0,3.65,0.49,4.93,1.47c0.89,0.68,1.61,1.69,2.17,3.04h0.56l-0.56-5.39h-0.59
		c-0.03,0.43-0.12,0.72-0.26,0.86c-0.14,0.15-0.31,0.22-0.52,0.22c-0.2,0-0.6-0.09-1.19-0.26c-1.17-0.34-2.08-0.57-2.72-0.67
		c-0.64-0.1-1.35-0.15-2.13-0.15c-2.15,0-4.01,0.37-5.58,1.1c-1.88,0.88-3.36,2.14-4.44,3.78c-0.91,1.38-1.36,2.82-1.36,4.32
		c0,2.08,0.81,3.91,2.43,5.5c2.16,2.12,5.31,3.18,9.46,3.18c1.45,0,2.76-0.12,3.95-0.37c1.18-0.24,2.38-0.63,3.6-1.15v-5.23
		c0-0.92,0.11-1.53,0.32-1.84C110.82,49.92,111.38,49.7,112.21,49.7L112.21,49.7z M81.11,58.55l1.84-4.64l-0.52-0.09
		c-0.55,1.06-1.1,1.83-1.65,2.33c-0.55,0.49-1.16,0.83-1.82,1.03c-0.67,0.19-1.82,0.29-3.47,0.29h-1.57c-1.38,0-2.21-0.04-2.47-0.13
		c-0.26-0.08-0.46-0.21-0.59-0.39c-0.17-0.26-0.25-0.74-0.25-1.44V44.77c0-1.02,0.08-1.66,0.25-1.93c0.17-0.27,0.48-0.49,0.94-0.67
		c0.46-0.18,1.26-0.26,2.4-0.25v-0.47h-9.73v0.47h0.81c0.81,0,1.43,0.18,1.84,0.55c0.3,0.27,0.44,0.94,0.44,2v11.03
		c0,0.97-0.11,1.6-0.33,1.87c-0.39,0.47-1.04,0.71-1.95,0.71h-0.81v0.47H81.11L81.11,58.55z M53.3,42.4
		c0.36-0.28,0.9-0.47,1.61-0.58v-0.47h-6.16v0.47c0.12,0.02,0.2,0.03,0.25,0.04c0.68,0.09,1.16,0.25,1.45,0.47
		c0.29,0.22,0.43,0.46,0.43,0.7c0,0.38-0.23,1.05-0.69,2.03l-4.72,9.89l-5.09-10.02c-0.45-0.89-0.68-1.55-0.68-1.97
		c0-0.3,0.14-0.55,0.41-0.74c0.28-0.19,0.88-0.33,1.8-0.4v-0.47h-8.17v0.47c0.61,0.04,1.09,0.14,1.45,0.28
		c0.36,0.15,0.66,0.35,0.91,0.61c0.16,0.17,0.43,0.63,0.81,1.39l7.49,14.73h0.55l6.98-14.55C52.32,43.44,52.78,42.81,53.3,42.4
		L53.3,42.4z M23.26,51.1c-0.69-0.55-1.73-0.96-3.11-1.21c1.19-0.33,2.09-0.83,2.7-1.51c0.61-0.68,0.91-1.44,0.91-2.3
		c0-1-0.39-1.88-1.17-2.65c-0.78-0.77-1.9-1.3-3.38-1.61c-0.97-0.2-2.27-0.3-3.88-0.3H6.7v0.47h0.75c0.76,0,1.33,0.18,1.71,0.55
		c0.29,0.28,0.43,0.95,0.43,2v11.04c0,0.96-0.11,1.58-0.34,1.88c-0.36,0.45-0.96,0.68-1.8,0.68H6.7v0.47h9.44
		c2.25,0,3.93-0.18,5.02-0.54c1.1-0.36,1.96-0.92,2.59-1.7c0.63-0.78,0.94-1.59,0.94-2.44C24.69,52.82,24.21,51.87,23.26,51.1
		L23.26,51.1z M20.1,47.77c-0.38,0.55-0.94,0.95-1.66,1.22c-0.72,0.26-1.8,0.4-3.24,0.4c-0.56,0-1.07-0.01-1.54-0.04
		c-0.47-0.03-0.88-0.07-1.25-0.13v-6.57c0.79-0.18,1.67-0.28,2.65-0.28c1.83,0,3.22,0.35,4.17,1.06c0.95,0.71,1.43,1.56,1.43,2.56
		C20.68,46.63,20.49,47.23,20.1,47.77L20.1,47.77z M21.27,54.15c0,1.01-0.47,1.86-1.4,2.54c-0.93,0.69-2.29,1.03-4.07,1.03
		c-1.11,0-2.24-0.11-3.38-0.34v-7.01c0.27-0.04,0.61-0.07,1.05-0.09c0.43-0.02,0.95-0.03,1.56-0.03c1.41,0,2.59,0.18,3.54,0.53
		c0.95,0.35,1.64,0.84,2.06,1.45C21.06,52.85,21.27,53.49,21.27,54.15L21.27,54.15z"/>
</g>
</svg>
