<svg id="Capa_1" data-name="Capa 1" xmlns="http://www.w3.org/2000/svg" viewBox="0 0 200 100"><path d="M130.76,47.81c-6.6-2.11-9.46-4-9-7.05s3.77-2.86,7-2.61a33.1,33.1,0,0,1,7.63,1.59.14.14,0,0,0,.17-.11c.17-1.12.77-4.08.94-5.08,0-.13-.1-.19-.16-.21a39.94,39.94,0,0,0-11.59-1.63c-7.88.14-11.54,3.31-12,9.94-.26,3.87,2.42,8.15,8,10s9.54,2.89,9,6.31c-.52,2.91-4,3.24-7.66,3a34.85,34.85,0,0,1-8.07-1.6c-.15,0-.23,0-.27.16-.15,1.2-.59,4.25-.73,5.32a.29.29,0,0,0,.17.28,55.75,55.75,0,0,0,12.72,1.48c7.56,0,11.49-3.24,11.93-9.46.34-4.83-1.93-8.39-8.05-10.36"/><path d="M96.64,47.81c-6.6-2.11-9.46-4-9-7.05s3.77-2.86,7-2.61a33,33,0,0,1,7.63,1.59c.06,0,.13,0,.16-.11.19-1.12.79-4.08,1-5.08a.2.2,0,0,0-.16-.21,40,40,0,0,0-11.58-1.63c-7.88.14-11.55,3.31-12,9.94-.26,3.87,2.42,8.15,8,10s9.54,2.89,9,6.31c-.5,2.91-3.93,3.24-7.66,3a34.73,34.73,0,0,1-8.07-1.6.19.19,0,0,0-.26.16c-.15,1.2-.58,4.25-.73,5.32a.27.27,0,0,0,.17.28,55.77,55.77,0,0,0,12.7,1.48c7.58,0,11.49-3.24,11.93-9.46.35-4.83-1.91-8.39-8-10.36"/><path d="M31.57,33.47H8.72a.22.22,0,0,0-.22.22V66.82a.22.22,0,0,0,.22.22h7.59a.22.22,0,0,0,.22-.22V54.42a.22.22,0,0,1,.22-.21H29.92a.22.22,0,0,0,.22-.22V48.86a.22.22,0,0,0-.22-.22H16.75a.22.22,0,0,1-.22-.22V39.26a.22.22,0,0,1,.22-.22h15a.22.22,0,0,0,.22-.22l-.18-5.13a.25.25,0,0,0-.23-.22"/><path d="M157.39,33.45h-7.83a.2.2,0,0,0-.22.21V66.82a.2.2,0,0,0,.22.21h7.83a.21.21,0,0,0,.21-.21V33.66a.21.21,0,0,0-.21-.21"/><path d="M191.28,61.38h-13a.22.22,0,0,1-.22-.22V33.71a.22.22,0,0,0-.22-.22H170a.22.22,0,0,0-.23.22V66.83a.22.22,0,0,0,.23.2h21a.23.23,0,0,0,.24-.2l.25-5.22a.21.21,0,0,0-.22-.23"/><path d="M55.57,32.74c-10.27,0-15.88,6.75-15.88,17.62S45.3,68,55.57,68s15.89-6.75,15.89-17.61c0-11-5.47-17.62-15.89-17.62m0,29.67c-7,0-7.94-5.8-7.94-12s1-12,7.94-12,7.94,5.8,7.94,12-1,12-7.94,12"/></svg>