<svg id="Capa_1" data-name="Capa 1" xmlns="http://www.w3.org/2000/svg" viewBox="0 0 200 100"><rect x="44.08" y="36.73" width="3.46" height="3.46"/><polygon points="52.17 36.73 52.17 40.19 52.17 45.69 52.17 63.95 55.83 63.95 55.83 40.19 63.91 40.19 63.91 37.03 63.72 36.73 52.17 36.73"/><polygon points="78.88 48.51 71.34 36.73 67.25 36.73 67.06 36.73 67.25 37.03 77.05 52.28 77.05 63.95 80.7 63.95 80.7 52.28 90.7 36.73 86.42 36.73 78.88 48.51"/><path d="M110.12,48.53a5.74,5.74,0,0,1-1.25,1.87A6,6,0,0,1,107,51.66a5.46,5.46,0,0,1-2.25.47H97.69V40.35h7.08a5.46,5.46,0,0,1,2.25.46,6.15,6.15,0,0,1,1.85,1.27,5.8,5.8,0,0,1,1.25,1.86,6.21,6.21,0,0,1,0,4.59m1.34-9a9.53,9.53,0,0,0-3-2,9.26,9.26,0,0,0-3.67-.74H94V64h3.65V55.7h7.08a9.25,9.25,0,0,0,3.67-.73,9.56,9.56,0,0,0,3-2,9.76,9.76,0,0,0,2-3,9.22,9.22,0,0,0,.76-3.71,9.1,9.1,0,0,0-.76-3.67,9.93,9.93,0,0,0-2-3"/><polygon points="117.6 63.95 135.76 63.95 135.76 60.37 121.29 60.37 121.29 52.13 134.71 52.13 134.71 48.55 121.29 48.55 121.29 40.31 135.76 40.31 135.76 36.73 117.6 36.73 117.6 63.95"/><polygon points="148.8 56.12 154.73 63.95 159.26 63.95 153.33 56.12 148.8 56.12"/><path d="M142.75,50.34v-10h8a4.85,4.85,0,0,1,1.95.39,4.85,4.85,0,0,1,2.58,2.66,5.4,5.4,0,0,1,0,3.93A4.85,4.85,0,0,1,152.67,50a4.85,4.85,0,0,1-1.95.39Zm12.05,2.53A8.67,8.67,0,0,0,157.16,51a8.8,8.8,0,0,0,1.57-2.59,8.36,8.36,0,0,0-.1-6.41,8.62,8.62,0,0,0-4.58-4.59,8.37,8.37,0,0,0-3.33-.68H139.1V64h3.65v-10h4.31l4.86-.09a8.9,8.9,0,0,0,2.88-1"/><path d="M30.62,79.76H172.78V20.92H30.62ZM175.4,82.38H28V18.3H175.4Z"/><path d="M164.22,38.47a2,2,0,0,0-.14-.59,2.37,2.37,0,0,0-.63-1,2.36,2.36,0,0,0-1.46-.65h-.43a2.5,2.5,0,0,0-.86.24A2.41,2.41,0,0,0,160,37a2.71,2.71,0,0,0-.5.76,3,3,0,0,0-.17.58c0,.08,0,.17,0,.25v.25a.28.28,0,0,0,0,.09,2.21,2.21,0,0,0,.13.63,2.53,2.53,0,0,0,.41.71,2.27,2.27,0,0,0,.66.57,2.75,2.75,0,0,0,.8.3,2.34,2.34,0,0,0,.59,0,2.4,2.4,0,0,0,1.39-.53,2.35,2.35,0,0,0,.62-.75,2.22,2.22,0,0,0,.24-.6,3,3,0,0,0,.06-.42A2.67,2.67,0,0,0,164.22,38.47Zm-2.48,2.33a2.08,2.08,0,1,1,.07-4.16,2.08,2.08,0,0,1-.07,4.16Z"/><path d="M161.46,39v1h-.53V37.46h.73a1.18,1.18,0,0,1,.75.19.66.66,0,0,1,.24.56.69.69,0,0,1-.12.39.76.76,0,0,1-.34.26l.73,1.09h-.58l-.6-1Zm0-.43h.17a.62.62,0,0,0,.37-.08.29.29,0,0,0,.12-.26A.27.27,0,0,0,162,38a.74.74,0,0,0-.38-.08h-.16Z"/></svg>