<svg id="Capa_1" data-name="Capa 1" xmlns="http://www.w3.org/2000/svg" viewBox="0 0 200 100"><path d="M49.76,34.54c-.24-1.16,1.2-1.74,2-2.38A21.76,21.76,0,0,0,54.42,30c1.36-1.47,3.45-5,.64-6.35-2-.94-5.21.42-7,1.33C42.55,27.79,37.3,33,33.66,37.81a69.8,69.8,0,0,0-6.85,11.73c-2.1,4.27-4.09,9.4-4,14.77,0,4.3,2.3,8.14,7.43,7.46,3.91-.52,7.16-3.86,9.76-6.16.82-.72,1.68-2.29,3.24-1.8.6,1.6-1,2.8-2,3.76-3.43,3.37-8.06,7.79-13.88,8-10.3.43-11.48-11.7-9-20.83,1.68-6.16,5.17-11.16,8.32-15.38A78.08,78.08,0,0,1,38.06,27.32c4.06-3.52,9.47-7.75,15.38-7.95,5.61-.18,7.48,4,5,8.44A18.12,18.12,0,0,1,54.55,32c-1.52,1.34-3.09,3.3-4.79,2.58"/><path d="M182.56,42.67c.67,1.27-.58,2.82-1.37,4-2.06,3.19-6.07,8.89-11.14,8.08-2.49-.4-4-2.44-4.06-5.13-.15-5.4,2.74-9.42,4.07-13.4-1.5.09-2.49,1.68-3.43,2.92a89.22,89.22,0,0,0-6.38,10.13c-.41.73-.78,1.74-1.37,1.92-1.19.37-2.37-.83-3.16-1.57C157,44,160,40.29,162.33,35.8a15.4,15.4,0,0,0-5,1.82c-2,6.08-5.53,12.12-10.6,15.75-2.25,1.61-7.4,4.32-8.11-.5-2.66.57-4.59,5.45-8.58,3.23-.74-5.38,3.44-11.07,5.07-15.45-1.46.5-2.5,2-3.45,3.29a82.85,82.85,0,0,0-6.46,11.37c-.51,1-.88,2.45-1.68,2.9a3.22,3.22,0,0,1-3.47-.46c-.19-1.59.85-2.88,1.5-4.17,1.92-3.8,3.81-7.64,6-11.27-2.27,0-3.22,2.57-5.56,2.91-.65-1.34.83-2.14,1.68-2.9s1.74-1.66,2.52-2.35c1.61-1.42,3.84-3.59,6.31-2.87a3.79,3.79,0,0,1-.56,3c1.12-.37,2-1.65,3.18-2.81.94-.94,4.57-4.07,4.91-.57.24,2.32-1.43,4.88-2.44,7.24s-2.32,4.65-2.31,7c1.48.14,2.6-1.24,3.75-1.9,2-6.9,5.42-12.28,10.83-15.36.77-3.43,9-5.9,8.24.38a30.3,30.3,0,0,0,4.64-2.22c.68-.49,1.34-1.8,2.11-1.87s1.78.73,2.29,1.51c-.25,1.32-.8,2.3-1.09,3.56,1.36-.53,2.57-2.17,4-3.63s2.81-3.35,4-4c.82-.46,2.71,1.19,2.74,2.29,0,.95-1.22,2.54-1.86,3.89-1.73,3.6-4,8.44-4.3,12.88-.13,1.83-.1,4,1.5,4.22,2.21.37,4.92-2.51,5.84-3.39a19.13,19.13,0,0,0,2.15-2.5c.55-.73,1.06-2.18,2.51-2.1M153.84,33.4c-1.77-.51-2,2.49,0,2.38,1-.59.91-2.11,0-2.38m-2.51,4.23c-1-.51-1.34-1.86-2.59-.78-1.49,1.3-2.5,4.24-3.66,6.66-.56,1.18-1.14,2.47-1.6,3.66-.52,1.36-1.32,2.85-.62,4,2.73-.9,4.44-3.43,6.1-5.51.83-1,1.67-2.22,2.46-3.35s1.87-2.45,2-4c-.76-.57-1.26-.21-2.09-.63"/><path d="M66.35,27.3c-.48,3-2.3,5.49-3.63,8.16-2.63,5.3-5.23,10.83-7.76,16.3a67.14,67.14,0,0,0-3.5,8.17c.82-.1,1.17-1,1.6-1.65a58.88,58.88,0,0,1,7.29-8.57c1.21-1.15,3.71-3.63,5.09-1.44,0,1.6-1.17,2.7-1.86,3.89a39.88,39.88,0,0,0-1.87,3.89c-1.15,2.57-2.66,5.34-2.53,8.61a3.62,3.62,0,0,0,3.76-2,22.74,22.74,0,0,0,.57-3.35c1.13-4.66,3.39-9.42,6.51-12.24,1.43-1.29,5.28-4.64,8.3-2.62.78.52,1,2.46.77,3.8-.81,4.89-4.92,8.15-8.18,10.89-.69.58-3.35,2.22-3.31,2.92.09,1.62,2.84.3,3.52-.16,3.14-2.11,5.48-5.26,7.87-8,1.57-1.8,3.3-3.92,4.86-5.83,1.34-1.63,3.12-5.31,5.74-3.65.29,1.54-1,2.64-1.74,3.77a62.16,62.16,0,0,0-4.07,7.26c-.57,1.22-1.29,2.74-.76,4.21,3-.59,4.67-3.29,6.22-5.5a42.41,42.41,0,0,0,4.22-7.63c-2.22-1-1.83-5.34.49-6,1.34-.36,3.45.31,3,2.31a27.59,27.59,0,0,0,5.59-1.41c1.39-.57,4.37-2.82,4.62.29.16,2-1.44,3.23-2.55,4.85-.8,1.15-1.61,2.43-2.35,3.61-1.64,2.62-3.63,5.27-3.37,8.05a7.82,7.82,0,0,0,4.58-3.35c.51-1.06.67-2.43,1.1-3.56a27.17,27.17,0,0,1,9.29-12.82c1.62-1.18,5.3-3.46,7.61-1.54.86,4.9-1.21,10.26-2.85,13.72-.41.87-1.06,1.65-1.4,2.54-1,2.65-1,5.24-2.24,7.88,1.87.12,4.57-1.3,6.78-.34-.37,1.45-2.11,1.78-3.38,2.17a35,35,0,0,1-4.32,1c-2.81,9.2-8.65,18.82-20.31,16.9-2.15-.35-3.47-1.88-3.36-4.46.21-4.93,4.78-8,8-9.9A34.81,34.81,0,0,1,111,62c.92-2.07,1.52-4.5,2.29-6.74a44.85,44.85,0,0,0-3.58,3.28c-2.15,1.9-6,4.59-6.35-.51-1.2.83-2.37,2.43-4,3.64s-6.47,4.21-6.37-.27c.07-2.71,1.69-5.8,3-8.2s3-4.69,4.17-6.76c-1.7-.14-2.61.62-4.29.49-2.23,5.47-6,12.27-10.65,16.5-2.34,2.1-8.09,5.53-7.18-1.32.3-2.25,1.32-4,1.86-5.77-2.17,1.19-3.92,3.9-6,6.39-1.86,2.21-4.32,5-6.83,5.34-2.29.3-2.62-1.17-4-2.25-3,1.41-3.47,5.6-8.08,5.14-1.53-2.6,0-7.2.27-10.5-.91.16-1.91,1.35-2.64,2.22A44,44,0,0,0,47,72.3c-1.16.18-2.48.79-3.78.39C45.73,60.92,51.76,48.62,56.93,38c2-4.06,3.71-9.42,7.92-10.78a2,2,0,0,1,1.5.09m49.1,13.64c-2.53,2-6.32,6.77-7.54,10.68-.42,1.39-.77,3.06.12,4.26,2.75-1.3,4.55-4.32,6.43-6.86a27.47,27.47,0,0,0,2.63-4.1c.71-1.45,1.67-3.22,1.06-5.07a4.13,4.13,0,0,0-2.7,1.09m-21.2,3c2.69-.27-1-2.53,0,0M76.19,46.55c-4.1,2.3-6.83,6.15-8.69,11,3-1.31,5.89-4.38,8-7.27.67-.94,1.81-2.38,1-3.7h-.24m25.44,21.83c-2.2,1.55-5.09,3.5-4.92,6.84,2.7,1.92,6.29.26,8.08-1.26a18.5,18.5,0,0,0,5.45-9.18l-.25,0a20.26,20.26,0,0,0-8.36,3.62"/><path d="M108.68,31c3.38-.64,2.77,3.94.95,4.93-1.2.65-3.48.25-3.55-1.34a3.74,3.74,0,0,1,2.6-3.59"/></svg>